# Generated by scripts/generate_banana_vhacd.py; do not edit manually.
v -0.00618736173 -0.0373258246 0.0173779505
v -0.00649223267 -0.0613965816 0.0175867828
v -0.00744729244 -0.0615370372 0.0094501992
v -0.0232367821 -0.0374400648 0.00893644059
v -0.0231873769 -0.0616041635 0.017660981
v -0.00783136575 -0.0371763921 0.00908324253
v -0.0227226631 -0.0379423959 0.0165836765
v -0.0229836768 -0.0613138751 0.00936670778
v -0.0227313401 -0.03766246 0.0276459692
v -0.0235537115 -0.0508471394 0.0289435167
v -0.0230470334 -0.0512292329 3.1638009e-05
v -0.0309694742 -0.037200041 -3.82292071e-05
v -0.0319397882 -0.0374492721 0.0281944147
v -0.0232024651 -0.037250656 0.000184879364
v -0.0315856303 -0.051234249 0.0280966306
v -0.0310787396 -0.0509879129 0.000488766251
v -0.0128794587 -0.0305641157 0.0308604236
v -0.00690169922 -0.0733099856 0.0175079371
v -0.007596 -0.027234 0.025622
v -0.0058243664 -0.0302139504 0.0170493063
v -0.0131445879 -0.0733561295 0.0183620043
v -0.00622481342 -0.0267542892 0.0226452827
v -0.00980427657 -0.0730471101 0.022962452
v -0.0122117975 -0.0310132403 0.0182034778
v -0.00809224583 -0.0680418568 0.0216010212
v -0.00610962406 -0.0390063743 0.018914198
v -0.0110935909 -0.0302656507 0.0301019301
v -0.0130223081 -0.073155634 0.0256908082
v -0.0138931963 -0.042240895 0.0302619739
v -0.00723549472 -0.0274521605 0.0218057274
v -0.00793574868 -0.0272166327 0.026113713
v -0.00778626697 -0.0732251187 0.0199567339
v -0.00958697326 -0.0594807504 0.0245836282
v -0.012492729 -0.0692325218 0.0261157908
v -0.013698 -0.0697972273 0.0268681241
v -0.0109054791 -0.0729024186 0.0241531129
v -0.0158845797 -0.0270417725 0.033524162
v -0.0127774215 -0.0511448466 0.0281039327
v -0.0127193763 -0.0268132891 0.0270465975
v -0.0319397882 -0.0374492721 0.0281944147
v -0.0283536606 -0.0544662755 0.0309778502
v -0.0315856303 -0.051234249 0.0280966306
v -0.0230873268 -0.0267223275 0.0286386842
v -0.0138859995 -0.027094389 0.0321218424
v -0.0172475066 -0.0509132537 0.0313660827
v -0.0313930853 -0.0371850425 0.0328615964
v -0.0267625449 -0.0544832786 0.0311949136
v -0.0142555184 -0.0510897117 0.0294198376
v -0.0311704493 -0.0508924771 0.0309760633
v -0.0232438328 -0.0270039867 0.0346458163
v -0.0264445677 -0.0439330534 0.0328810531
v -0.0159379756 -0.0474472197 0.0310507511
v -0.0199430063 -0.0457054663 0.0328439735
v -0.0263237058 -0.0541484261 0.0313569615
v -0.0312917699 -0.0388759436 0.0327212945
v -0.017673 -0.042754 0.032655
v -0.0233684789 -0.0457547206 0.0329233759
v -0.0232438328 -0.0270039867 0.0346458163
v -0.023295463 -0.037136967 0.0338873625
v -0.0232024651 -0.037250656 0.000184879364
v -0.0312980295 -0.0271138722 0.000243824865
v -0.0314272816 -0.0269034963 0.0334619845
v -0.0313930853 -0.0371850425 0.0328615964
v -0.0236708539 -0.027098653 0.000241778598
v -0.0309694742 -0.037200041 -3.82292071e-05
v -0.0321823013 -0.0150699151 0.0280228728
v -0.0319397882 -0.0374492721 0.0281944147
v -0.0310280246 -0.0150146691 0.0105805991
v -0.0399110929 -0.0153858829 0.0117687535
v -0.0401779383 -0.0356803522 0.0265939462
v -0.0389208218 -0.0150914979 0.0273407964
v -0.0321670478 -0.0374180115 0.00854842109
v -0.041924552 -0.0171885159 0.0187557216
v -0.0396133456 -0.0373170059 0.0274058995
v -0.0396246525 -0.0272317926 0.0276116034
v -0.0419147088 -0.0373017139 0.013077706
v -0.0404327587 -0.0278783989 0.00985524575
v -0.0405046665 -0.0152818439 0.0238561001
v -0.0418182936 -0.0375125945 0.0223997744
v -0.0318192944 -0.0270855044 0.00902923507
v -0.040521451 -0.0373079573 0.00985387001
v -0.0418729549 -0.0204375593 0.0148990482
v -0.041940542 -0.0170398375 0.016434672
v -0.0401162211 -0.0170182767 0.0253231033
v -0.0418260985 -0.0238008741 0.0221691973
v -0.0409322138 -0.0369136104 0.0248881663
v -0.0418521868 -0.0269520486 0.0134521736
v -0.0318375818 -0.00644496486 0.0108360394
v -0.0318560647 -0.0511295431 0.00900473501
v -0.031729472 -0.027188056 0.0106094193
v -0.0310610794 -0.00871090901 0.00165161984
v -0.0410237541 -0.0271549596 0.0112211554
v -0.0311525658 -0.0457135145 0.00020823066
v -0.0380664096 -0.00660841496 0.0110740464
v -0.0393401094 -0.0509654595 0.0095785864
v -0.0391665206 -0.0118462087 0.0113990374
v -0.0337023514 -0.0171286232 0.00229584388
v -0.0316050093 -0.00653938532 0.00245765623
v -0.031484055 -0.0510315514 0.000666997705
v -0.0406266947 -0.0221982643 0.0113177367
v -0.0313990877 -0.0253570334 0.000350763616
v -0.0366719937 -0.0119759658 0.00698222093
v -0.0385038395 -0.042433942 0.00682243724
v -0.0321457387 -0.00866746199 0.00249154445
v -0.0387555522 -0.0513324064 0.00860019938
v -0.0325392142 -0.0253702258 0.000828629746
v -0.0383996155 -0.011893636 0.00993814176
v -0.0366327463 -0.00690358145 0.00851406191
v -0.0385587103 -0.0236247218 0.00714335569
v -0.0404327587 -0.0278783989 0.00985524575
v -0.0334603267 -0.00862727502 0.00381503175
v -0.0366686436 -0.0506206792 0.00537235549
v -0.0321452626 -0.0456077298 0.000616418655
v -0.0400110065 -0.022016158 0.0100805324
v -0.0325309899 -0.00666767326 0.00332204662
v -0.036676727 -0.018794481 0.0053711178
v -0.033477 -0.05055 0.002018
v -0.0350830435 -0.0171544237 0.0037481999
v -0.0313358796 -0.00659324845 0.0335075768
v -0.0317444986 -0.0373416741 0.0327379176
v -0.0317724927 -0.00657627899 0.0278559602
v -0.0378278473 -0.00644437774 0.0271900896
v -0.0386599333 -0.0371217279 0.0288590411
v -0.0314543839 -0.0338451879 0.0331116422
v -0.0353078562 -0.00859947607 0.031229865
v -0.0319397882 -0.0374492721 0.0281944147
v -0.0365832514 -0.0390029561 0.0305961535
v -0.0325774305 -0.00665812085 0.0329414937
v -0.0383657894 -0.0152956659 0.0283293145
v -0.0396133456 -0.0373170059 0.0274058995
v -0.0329334538 -0.0336835407 0.032664769
v -0.0352398255 -0.0390795509 0.0312648906
v -0.037288928 -0.00705544202 0.0282642312
v -0.0329382838 -0.0150889044 0.0331702221
v -0.0389208218 -0.0150914979 0.0273407964
v -0.0359574137 -0.0390454797 0.0309072922
v -0.0349525524 -0.0387606059 0.0314221227
v -0.0137042027 -0.0274304491 0.0312165274
v -0.00618736173 -0.0373258246 0.0173779505
v -0.0062074407 -0.0269833724 0.0117273255
v -0.0236708539 -0.027098653 0.000241778598
v -0.0227313401 -0.03766246 0.0276459692
v -0.0123588207 -0.0374074138 0.00382259406
v -0.0230873268 -0.0267223275 0.0286386842
v -0.00601940154 -0.0267612823 0.0221183627
v -0.0128207336 -0.0372670174 0.0287671829
v -0.00845016865 -0.0374267573 0.0068193614
v -0.0123655558 -0.027127765 0.00415832457
v -0.0232024651 -0.037250656 0.000184879364
v -0.00610365072 -0.0339617671 0.0179769842
v -0.00938534917 -0.0267362119 0.0288996733
v -0.00760883199 -0.0269957321 0.00776934777
v -0.0128794587 -0.0305641157 0.0308604236
v -0.00615535823 -0.0339871641 0.0152176309
v -0.0154941868 -0.0374277981 0.00225655449
v -0.010429273 -0.0268995649 0.0300064513
v -0.00640880344 -0.0303449227 0.0222170018
v -0.0220120362 -0.0270881862 0.000525926478
v -0.00783136575 -0.0371763921 0.00908324253
v -0.0218449884 -0.0373752746 0.000414452733
v -0.0156158383 -0.0271413582 0.00252757381
v -0.0110935909 -0.0302656507 0.0301019301
v -0.00636024021 -0.0286763292 0.0116032822
v -0.00977145532 -0.0283565374 0.0289750461
v -0.00947096252 -0.0150066618 0.0296002026
v -0.00984505742 -0.0270214227 0.0292030249
v -0.00708404486 -0.0202214739 0.00831488306
v -0.0310007141 -0.0152372994 0.0007974257
v -0.0318165264 -0.0150443391 0.0296372063
v -0.0312980295 -0.0271138722 0.000243824865
v -0.0104116413 -0.0151588013 0.00486837296
v -0.0062927369 -0.0201897439 0.0108098691
v -0.0316109718 -0.0268601285 0.0294244801
v -0.00760883199 -0.0269957321 0.00776934777
v -0.0165923963 -0.0149502592 0.00211416723
v -0.0123655558 -0.027127765 0.00415832457
v -0.00663414862 -0.0270759503 0.0110672217
v -0.0121513703 -0.01506379 0.00396310424
v -0.0238596942 -0.0149761438 0.000543783384
v -0.0220120362 -0.0270881862 0.000525926478
v -0.0217310021 -0.0199987774 0.000745335008
v -0.0123003552 -0.00618263791 0.0345163407
v -0.00984505742 -0.0270214227 0.0292030249
v -0.00938884851 -0.00640224808 0.0298442898
v -0.0317280121 -0.0064159925 0.0300492205
v -0.0314272816 -0.0269034963 0.0334619845
v -0.0101072144 -0.00628721793 0.0335523886
v -0.0183075542 -0.0269310799 0.034607612
v -0.0279424879 -0.00654775688 0.0345453736
v -0.0316109718 -0.0268601285 0.0294244801
v -0.0231294065 -0.0269951191 0.0346545573
v -0.0173258074 -0.0251454361 0.0345307746
v -0.0313358796 -0.00659324845 0.0335075768
v -0.0278998631 -0.0133990062 0.0345451633
v -0.010429273 -0.0268995649 0.0300064513
v -0.0247408628 -0.023621897 0.03463681
v -0.0114412936 -0.0267223765 0.0306786224
v -0.0108075115 -0.0233111712 0.0311026687
f 1 2 3
f 5 2 1
f 5 3 2
f 6 1 3
f 6 3 4
f 6 4 1
f 7 5 1
f 7 1 4
f 7 4 5
f 8 5 4
f 8 4 3
f 8 3 5
f 9 10 11
f 13 10 9
f 14 9 11
f 14 11 12
f 14 13 9
f 14 12 13
f 15 11 10
f 15 10 13
f 16 15 13
f 16 13 12
f 16 12 11
f 16 11 15
f 21 20 18
f 24 20 21
f 25 22 19
f 25 18 22
f 26 22 18
f 26 18 20
f 26 20 22
f 28 21 18
f 29 24 21
f 29 17 24
f 29 27 17
f 30 22 20
f 30 20 24
f 31 24 17
f 31 30 24
f 31 19 22
f 31 22 30
f 31 17 27
f 31 27 25
f 31 25 19
f 32 25 23
f 32 18 25
f 32 28 18
f 32 23 28
f 33 23 25
f 33 25 27
f 35 29 21
f 35 21 28
f 35 28 34
f 35 34 27
f 35 27 29
f 36 33 27
f 36 23 33
f 36 27 34
f 36 34 28
f 36 28 23
f 42 39 38
f 42 40 39
f 42 38 41
f 43 37 39
f 43 39 40
f 44 38 39
f 44 39 37
f 46 40 42
f 47 41 38
f 48 38 44
f 48 47 38
f 48 45 47
f 49 46 42
f 49 42 41
f 50 43 40
f 50 40 46
f 50 37 43
f 51 50 46
f 52 48 44
f 52 44 37
f 52 45 48
f 53 37 50
f 54 51 41
f 54 41 47
f 54 47 45
f 54 45 53
f 55 49 41
f 55 41 51
f 55 51 46
f 55 46 49
f 56 52 37
f 56 45 52
f 56 53 45
f 56 37 53
f 57 53 50
f 57 50 51
f 57 54 53
f 57 51 54
f 58 59 60
f 63 60 59
f 63 62 61
f 63 59 58
f 63 58 62
f 64 58 60
f 64 62 58
f 64 61 62
f 65 63 61
f 65 60 63
f 65 64 60
f 65 61 64
f 66 67 68
f 71 66 68
f 71 68 69
f 72 68 67
f 75 67 66
f 75 66 71
f 75 74 67
f 75 70 74
f 77 69 68
f 78 71 69
f 79 73 76
f 79 67 74
f 79 72 67
f 80 77 68
f 80 68 72
f 80 72 77
f 81 77 72
f 81 76 77
f 81 79 76
f 81 72 79
f 82 69 77
f 83 78 69
f 83 73 78
f 83 69 82
f 83 76 73
f 84 75 71
f 84 71 78
f 85 78 73
f 85 73 79
f 85 84 78
f 85 75 84
f 86 79 74
f 86 74 70
f 86 85 79
f 86 70 75
f 86 75 85
f 87 82 77
f 87 77 76
f 87 83 82
f 87 76 83
f 88 90 91
f 93 90 89
f 93 91 90
f 95 89 90
f 95 90 92
f 96 90 88
f 96 88 94
f 98 94 88
f 98 88 91
f 99 93 89
f 100 92 90
f 100 90 96
f 101 91 93
f 104 98 91
f 104 91 97
f 105 99 89
f 105 89 95
f 105 95 103
f 106 97 91
f 106 91 101
f 107 96 94
f 108 107 94
f 108 102 107
f 109 107 102
f 109 106 103
f 109 97 106
f 110 103 95
f 110 95 92
f 110 109 103
f 110 92 100
f 111 102 108
f 111 104 97
f 112 105 103
f 112 99 105
f 113 106 101
f 113 101 93
f 113 93 99
f 113 103 106
f 114 100 96
f 114 96 107
f 114 107 109
f 114 110 100
f 114 109 110
f 115 108 94
f 115 94 98
f 115 111 108
f 115 98 104
f 115 104 111
f 116 109 102
f 117 113 99
f 117 99 112
f 117 112 103
f 117 103 113
f 118 97 109
f 118 109 116
f 118 111 97
f 118 116 102
f 118 102 111
f 119 121 122
f 124 121 119
f 126 124 120
f 126 121 124
f 126 122 121
f 127 125 123
f 128 119 122
f 129 123 125
f 130 122 126
f 130 123 129
f 130 127 123
f 130 126 127
f 131 120 124
f 132 126 120
f 132 131 127
f 133 128 122
f 133 125 128
f 133 129 125
f 134 128 125
f 134 125 127
f 134 127 131
f 134 119 128
f 134 131 124
f 134 124 119
f 135 130 129
f 135 122 130
f 135 133 122
f 135 129 133
f 136 132 127
f 136 127 126
f 136 126 132
f 137 132 120
f 137 120 131
f 137 131 132
f 144 142 138
f 144 141 142
f 146 142 139
f 147 139 142
f 149 142 141
f 150 145 139
f 150 140 145
f 151 145 144
f 152 145 140
f 152 140 147
f 152 147 143
f 152 143 148
f 153 138 142
f 153 142 146
f 154 150 139
f 154 140 150
f 155 147 142
f 155 143 147
f 156 151 144
f 156 144 138
f 156 138 153
f 157 146 139
f 157 139 145
f 157 145 151
f 158 145 152
f 158 141 144
f 158 144 145
f 159 154 139
f 159 139 147
f 160 155 142
f 160 142 149
f 160 158 155
f 160 149 141
f 160 141 158
f 161 148 143
f 161 143 155
f 161 155 158
f 161 158 152
f 161 152 148
f 162 156 153
f 162 153 146
f 162 151 156
f 162 146 157
f 163 159 147
f 163 147 140
f 163 140 154
f 163 154 159
f 164 162 157
f 164 157 151
f 164 151 162
f 170 169 168
f 172 165 166
f 172 171 165
f 172 167 171
f 173 166 165
f 173 165 169
f 173 170 166
f 173 169 170
f 174 167 172
f 174 171 167
f 175 169 165
f 176 166 170
f 176 171 174
f 177 174 172
f 177 172 166
f 177 176 174
f 177 166 176
f 178 175 165
f 178 165 171
f 178 176 175
f 178 171 176
f 179 168 169
f 179 169 175
f 179 170 168
f 180 176 170
f 180 170 179
f 180 175 176
f 181 180 179
f 181 179 175
f 181 175 180
f 182 184 185
f 184 183 185
f 187 183 184
f 187 184 182
f 189 182 185
f 190 186 185
f 190 185 183
f 191 183 188
f 191 190 183
f 191 186 190
f 191 188 182
f 191 182 189
f 192 187 182
f 192 182 188
f 193 189 185
f 193 185 186
f 193 186 189
f 194 189 186
f 195 188 183
f 195 183 187
f 196 191 189
f 196 189 194
f 196 194 186
f 196 186 191
f 197 192 188
f 197 188 195
f 198 197 195
f 198 195 187
f 198 187 192
f 198 192 197
