# Generated by scripts/generate_banana_vhacd.py; do not edit manually.
v -0.015152669 -0.0830049981 0.0243241835
v -0.00987851066 -0.0896656412 0.0166675679
v -0.00908382224 -0.0834439437 0.00816949005
v -0.0239423825 -0.0833294921 0.00358867594
v -0.023458 -0.095416 0.015441
v -0.0291944071 -0.082507764 0.0218235334
v -0.00963167683 -0.0831753136 0.0199507257
v -0.0154869939 -0.0939683011 0.0192975071
v -0.01557 -0.093724 0.006777
v -0.0306505225 -0.0831000291 0.00978143543
v -0.00966605873 -0.0847711439 0.0193895617
v -0.0237994349 -0.0925520085 0.0192626561
v -0.011256 -0.092777 0.010006
v -0.0152669075 -0.0954266612 0.0131130118
v -0.023188892 -0.0940862553 0.00874949282
v -0.01532966 -0.0837553518 0.00406874266
v -0.0297435992 -0.0860290911 0.0168691775
v -0.0126995647 -0.0913074471 0.0193942454
v -0.0209850982 -0.0952751711 0.0178479941
v -0.0196227846 -0.0894428679 0.0224516609
v -0.0112817015 -0.089933347 0.00743104601
v -0.00978070579 -0.0899426545 0.00978194082
v -0.0126889093 -0.0942363133 0.0167555574
v -0.0122367999 -0.0938720021 0.0113152677
v -0.0208052606 -0.0929902343 0.00584389797
v -0.0282030545 -0.0894712984 0.0112883308
v -0.0222607171 -0.0954108902 0.00971420488
v -0.0121608452 -0.0834922837 0.00546755741
v -0.0307090351 -0.0832953057 0.018395179
v -0.0262092157 -0.0906789127 0.0188028158
v -0.010072 -0.087952 0.018407
v -0.0167169989 -0.0895028232 0.0224182722
v -0.0128262342 -0.0848693132 0.0224504636
v -0.0236880815 -0.0939138929 0.0180625775
v -0.0171024588 -0.0955404029 0.01802859
v -0.0225608935 -0.08332942 0.024645754
v -0.0211246256 -0.0940974664 0.0190808545
v -0.0129059936 -0.0922554104 0.00734527424
v -0.0114656846 -0.0929586064 0.0165568529
v -0.009848 -0.088516 0.008554
v -0.0168625237 -0.0953785926 0.00961857
v -0.0138407526 -0.0936725532 0.00823884958
v -0.0168724864 -0.0883980897 0.00429915985
v -0.026501511 -0.0878184236 0.00730495277
v -0.02989 -0.086487 0.011459
v -0.0249506851 -0.0940626448 0.0153027841
v -0.0250144582 -0.0939596571 0.0114971339
v -0.0207171661 -0.0942679045 0.00694145474
v -0.0254971042 -0.089122005 0.0208039991
v -0.0279433258 -0.0893230044 0.0170877549
v -0.0300235502 -0.0844332785 0.0186551809
v -0.0124851311 -0.0831861812 0.0227035053
v -0.015488 -0.084691 0.023998
v -0.0151070861 -0.0953727434 0.0170698096
v -0.023537 -0.095593 0.012669
v -0.0276035179 -0.0828310865 0.0228655242
v -0.0242244676 -0.0876257994 0.0223054663
v -0.011334655 -0.0913571191 0.0179065249
v -0.0155391753 -0.0927226087 0.00598192326
v -0.015385 -0.085184 0.004168
v -0.0212920101 -0.0884772301 0.0041863455
v -0.023216434 -0.0925279166 0.00737036084
v -0.024010693 -0.084872139 0.00403115189
v -0.0266339154 -0.0910482963 0.0100135252
v -0.0169278393 -0.0730189343 0.0280802601
v -0.00842811024 -0.0833483054 0.0176879778
v -0.00775553459 -0.0734626239 0.00921589935
v -0.0345450471 -0.0732222188 0.00919393688
v -0.0285274831 -0.0823610911 0.0224466071
v -0.00861791875 -0.083577619 0.00929765556
v -0.029054 -0.072138 0.026998
v -0.00778626697 -0.0732251187 0.0199567339
v -0.015152669 -0.0830049981 0.0243241835
v -0.00817426283 -0.0831291505 0.0110187536
v -0.0306505225 -0.0831000291 0.00978143543
v -0.0356884935 -0.0729571479 0.0112679588
v -0.01378658 -0.0726550412 0.026358202
v -0.019884 -0.081225 0.025986
v -0.00814255349 -0.0799311861 0.0096197015
v -0.00824779987 -0.0814549962 0.0182202711
v -0.0239500438 -0.0830946746 0.0242867477
v -0.0354311922 -0.0729104149 0.0200591541
v -0.033424229 -0.077784795 0.0100717409
v -0.0142927561 -0.0812776157 0.0244524704
v -0.0183489442 -0.0813064024 0.0258929039
v -0.0226797923 -0.0733833731 0.0280593948
v -0.0111511547 -0.0795995106 0.0227351134
v -0.0314859478 -0.0826962044 0.0168603937
v -0.026096304 -0.0777157158 0.0258320395
v -0.0124851311 -0.0831861812 0.0227035053
v -0.0324844504 -0.0727775657 0.0249653756
v -0.0338974261 -0.072596397 0.0234041415
v -0.0142251832 -0.0762115505 0.0257154963
v -0.0171713437 -0.0744720998 0.0277134605
v -0.00927632829 -0.0798580975 0.0205936508
v -0.0317562899 -0.0825448298 0.0114413175
v -0.0293591723 -0.0744031323 0.0260088607
v -0.0227753787 -0.0745503102 0.0277111586
v -0.0316309468 -0.0791653213 0.0213307286
v -0.0184673709 -0.0758988815 0.0275263887
v -0.00963167683 -0.0831753136 0.0199507257
v -0.0315580108 -0.0814926395 0.00995917241
v -0.0346821087 -0.0761803894 0.0116227177
v -0.030289691 -0.0772421639 0.024159205
v -0.021348 -0.07521 0.027795
v -0.0320300628 -0.0741474163 0.0246059562
v -0.0313149854 -0.0806257589 0.0205156739
v -0.0346997541 -0.0757915733 0.018371574
v -0.033713299 -0.0738722809 0.0226779007
v -0.0349149027 -0.0737671991 0.0204451398
v -0.0168201029 -0.0610056804 0.00872952766
v -0.00861791875 -0.083577619 0.00929765556
v -0.0156933199 -0.0614618281 0.00170202495
v -0.0292593509 -0.0611239208 0.00065472198
v -0.0355802087 -0.0714588735 0.00996334544
v -0.01532966 -0.0837553518 0.00406874266
v -0.0216985166 -0.0611145333 0.00040504435
v -0.00775553459 -0.0734626239 0.00921589935
v -0.0335631884 -0.0613870999 0.00903553797
v -0.0102449977 -0.0732030452 0.0052371386
v -0.0252915036 -0.0831023914 0.00425254262
v -0.0184791632 -0.0765870192 0.00236918808
v -0.00779219522 -0.0749915646 0.00949938574
v -0.0327882983 -0.061263008 0.00305213389
v -0.013852852 -0.0665189951 0.00256778845
v -0.00956765404 -0.0832590096 0.00738456431
v -0.00824393857 -0.0731888226 0.0076862646
v -0.0306505225 -0.0831000291 0.00978143543
v -0.0149917615 -0.0664692436 0.00215943064
v -0.0235837703 -0.0782331047 0.00237720555
v -0.0366294048 -0.0663347588 0.00912926344
v -0.0322176054 -0.0727427241 0.00599459197
v -0.0288749688 -0.0711264264 0.0025753223
v -0.0138600904 -0.0800213899 0.00430307919
v -0.011048 -0.078009 0.0055
v -0.00800931252 -0.0749789859 0.00871515357
v -0.0217732185 -0.0646495849 0.000685460429
v -0.0153390626 -0.0713971718 0.00253827549
v -0.033813908 -0.0661016956 0.00515813161
v -0.0317519645 -0.0793273082 0.00869915356
v -0.030542984 -0.0660351505 0.0023360953
v -0.0287481093 -0.0762649703 0.00410378055
v -0.027202865 -0.0745291909 0.00253573188
v -0.0278774483 -0.0645049416 0.00066429236
v -0.0360230228 -0.0668970099 0.00832574079
v -0.0323157077 -0.0796273652 0.00977305263
v -0.0349575959 -0.0710060165 0.00870347255
v -0.0298334993 -0.0810934499 0.00733811751
v -0.0320516262 -0.0677004756 0.00401519498
v -0.0245039618 -0.0780626936 0.00254602756
v -0.0290755741 -0.0627537855 0.00083011512
v -0.0337605204 -0.0675447447 0.00562032744
v -0.0300092176 -0.0829635855 0.00876309904
v -0.0302543513 -0.0613205407 0.0292347465
v -0.029054 -0.072138 0.026998
v -0.030147335 -0.0614048105 0.00901768273
v -0.0327882983 -0.061263008 0.00305213389
v -0.0383946263 -0.0663908278 0.0183396315
v -0.0303169764 -0.0737020809 0.00914858379
v -0.029478069 -0.0679229269 0.0281358729
v -0.0385350076 -0.0609749586 0.022104486
v -0.0326037863 -0.0630356455 0.00339860541
v -0.0351201308 -0.0723964353 0.0214737906
v -0.0336668755 -0.0612159593 0.00382218701
v -0.0347 -0.061185 0.027513
v -0.0354162704 -0.0722114331 0.0101499438
v -0.0315098977 -0.0726787617 0.025710462
v -0.0366414306 -0.0658412153 0.0233210191
v -0.0387611604 -0.061167315 0.0114651838
v -0.0330590074 -0.0665483806 0.00458396572
v -0.0327133454 -0.0661077549 0.0273373509
v -0.0368635987 -0.0710593332 0.0128674282
v -0.0382807867 -0.0625857977 0.0217719774
v -0.0367072016 -0.0710687519 0.0186687705
v -0.0367504366 -0.0611184238 0.0255016634
v -0.0351354574 -0.067466022 0.0248552266
v -0.0335167055 -0.0629281986 0.00408903404
v -0.0370083004 -0.0642284413 0.00894995234
v -0.0308219868 -0.0678060512 0.0277168782
v -0.0384005504 -0.0660124318 0.0131158762
v -0.0367290217 -0.0625800061 0.0249146253
v -0.0348921064 -0.0707836968 0.023135125
v -0.0340154465 -0.0676358012 0.0259893883
v -0.033813908 -0.0661016956 0.00515813161
v -0.0373102605 -0.0613801999 0.00849928098
v -0.0320177979 -0.070829829 0.026190226
v -0.0385393656 -0.0625496166 0.0114173834
v -0.0367054482 -0.0677871871 0.0100152931
v -0.034554 -0.062405 0.027302
v -0.0349839547 -0.0665195196 0.0069716329
v -0.0172132926 -0.0612657646 0.0300904853
v -0.01378658 -0.0726550412 0.026358202
v -0.0138973756 -0.0613492261 0.0188281558
v -0.030121044 -0.0613412527 0.0176600681
v -0.029054 -0.072138 0.026998
v -0.0131445879 -0.0733561295 0.0183620043
v -0.0294134427 -0.0609534691 0.0295198419
v -0.0140242883 -0.061261911 0.0281531038
v -0.0160402696 -0.0730416322 0.0276468932
v -0.0301921151 -0.0734462255 0.0175784826
v -0.0140985457 -0.0678316577 0.0274344596
v -0.0230601218 -0.0677913114 0.0294258018
v -0.0295423233 -0.0694243789 0.0277209719
v -0.0262280603 -0.072776271 0.0276226652
v -0.0172118731 -0.0679289463 0.0292280689
v -0.0280655656 -0.0641657745 0.0292877544
v -0.0292531996 -0.0630476299 0.0292064938
v -0.00649223267 -0.0613965816 0.0175867828
v -0.00690169922 -0.0733099856 0.0175079371
v -0.00775553459 -0.0734626239 0.00921589935
v -0.030147335 -0.0614048105 0.00901768273
v -0.030121044 -0.0613412527 0.0176600681
v -0.00744729244 -0.0615370372 0.0094501992
v -0.0301921151 -0.0734462255 0.0175784826
v -0.0303169764 -0.0737020809 0.00914858379
v -0.0213070035 -0.0516426644 0.0249669844
v -0.0231505199 -0.0615690535 0.0258950931
v -0.0234284941 -0.0614093426 0.000257661863
v -0.0310787396 -0.0509879129 0.000488766251
v -0.0389357275 -0.0507768269 0.0256036665
v -0.0230470334 -0.0512292329 3.1638009e-05
v -0.0387611604 -0.061167315 0.0114651838
v -0.0367504366 -0.0611184238 0.0255016634
v -0.0402358425 -0.0509247315 0.0115414758
v -0.032057141 -0.0610285512 0.00240455133
v -0.0401571023 -0.0594506108 0.0172836145
v -0.0403369041 -0.0508002399 0.0221412817
v -0.0292593509 -0.0611239208 0.00065472198
v -0.0387555522 -0.0513324064 0.00860019938
v -0.0385350076 -0.0609749586 0.022104486
v -0.0400919624 -0.0573759738 0.013242173
v -0.0308392692 -0.0574474523 0.000957171764
v -0.0352192072 -0.0611525168 0.00545472268
v -0.0384258331 -0.054302555 0.00865487337
v -0.03989035 -0.0562780802 0.0208962889
v -0.038439544 -0.0560150953 0.0248548514
v -0.0402076306 -0.0525294597 0.0119047531
v -0.0400691535 -0.0588454786 0.0144416843
v -0.0383446377 -0.0593709358 0.00999741368
v -0.040084752 -0.0525000254 0.0221599019
v -0.0172475066 -0.0509132537 0.0313660827
v -0.0131118848 -0.0613555661 0.0260238612
v -0.0133168435 -0.0509558946 0.0261127614
v -0.0386150306 -0.0510833721 0.0261426288
v -0.0294134427 -0.0609534691 0.0295198419
v -0.0376757199 -0.0576856609 0.0255874848
v -0.0374246846 -0.0507767446 0.0280450791
v -0.0142555184 -0.0510897117 0.0294198376
v -0.0172132926 -0.0612657646 0.0300904853
v -0.0364252415 -0.0611082723 0.0259592344
v -0.0260604686 -0.0511586127 0.0318322782
v -0.0372312075 -0.0570919214 0.0264994259
v -0.0158550056 -0.0595524836 0.0295807335
v -0.0342285556 -0.055788702 0.0291336742
v -0.0347 -0.061185 0.027513
v -0.0345310211 -0.0509314014 0.0298645475
v -0.0198935637 -0.0593841401 0.0311301171
v -0.0142196616 -0.0522720982 0.0292938072
v -0.0175365007 -0.0560171885 0.0309709426
v -0.0140242883 -0.061261911 0.0281531038
v -0.0360066815 -0.0574074071 0.027740254
v -0.0153381405 -0.0616135421 0.0269752015
v -0.0263896821 -0.0554559907 0.0311339702
v -0.0218280914 -0.0595166278 0.0310675803
v -0.0362730378 -0.0610160014 0.0262160685
v -0.0370905614 -0.052360575 0.0280201077
v -0.00785426726 -0.037369603 0.00904529108
v -0.00775553459 -0.0734626239 0.00921589935
v -0.0108821679 -0.0680770795 0.0041560672
v -0.0232024651 -0.037250656 0.000184879364
v -0.0229836768 -0.0613138751 0.00936670778
v -0.0123588207 -0.0374074138 0.00382259406
v -0.00845016865 -0.0374267573 0.0068193614
v -0.00763149523 -0.0582556557 0.00944267412
v -0.0232367821 -0.0374400648 0.00893644059
v -0.0135090171 -0.0731527003 0.00345528532
v -0.0138439033 -0.0529025505 0.00253180497
v -0.00824393857 -0.0731888226 0.0076862646
v -0.0105611242 -0.0560315964 0.00435943022
v -0.0234284941 -0.0614093426 0.000257661863
v -0.0122514133 -0.0735226392 0.00872394198
v -0.0154941868 -0.0374277981 0.00225655449
v -0.0138548875 -0.0663766131 0.00255588848
v -0.00944361361 -0.0726157956 0.0058420364
v -0.00806174285 -0.0581493285 0.00808566584
v -0.0203575602 -0.0408368536 0.000716057932
v -0.012185 -0.073043 0.004033
v -0.0200283073 -0.0613371166 0.000647584652
v -0.00981050162 -0.0528867996 0.00512572141
v -0.0218449884 -0.0373752746 0.000414452733
v -0.0317444986 -0.0373416741 0.0327379176
v -0.0316643374 -0.0510408632 0.030757197
v -0.0321670478 -0.0374180115 0.00854842109
v -0.040521451 -0.0373079573 0.00985387001
v -0.0418182936 -0.0375125945 0.0223997744
v -0.0393401094 -0.0509654595 0.0095785864
v -0.0386599333 -0.0371217279 0.0288590411
v -0.0314162559 -0.0490521948 0.0312277432
v -0.0318560647 -0.0511295431 0.00900473501
v -0.0418071028 -0.0457110374 0.0144941136
v -0.0419147088 -0.0373017139 0.013077706
v -0.0383810163 -0.0507065813 0.0266700148
v -0.0358615542 -0.0507298108 0.0292735424
v -0.042034656 -0.0457451259 0.0174250738
v -0.0403663795 -0.0406919674 0.00984681885
v -0.0398404559 -0.0458692042 0.0254124985
v -0.0403369041 -0.0508002399 0.0221412817
v -0.0329291108 -0.0490041635 0.0307993845
v -0.0375097247 -0.0438882009 0.0293466625
v -0.0418589137 -0.0405629416 0.0133776104
v -0.0419576598 -0.0422158856 0.0208013742
v -0.0402358425 -0.0509247315 0.0115414758
v -0.0389165326 -0.0385454102 0.0283490739
v -0.0342118705 -0.0439086694 0.0311251525
v -0.0375160856 -0.0372331663 0.0301039871
v -0.041843222 -0.0389890909 0.0220731589
v -0.0346514333 -0.0372647293 0.0316861128
v -0.0128207336 -0.0372670174 0.0287671829
v -0.0131118848 -0.0613555661 0.0260238612
v -0.0123451644 -0.0377486702 0.0172037277
v -0.0227226631 -0.0379423959 0.0165836765
v -0.0235537115 -0.0508471394 0.0289435167
v -0.0231873769 -0.0616041635 0.017660981
v -0.0127774215 -0.0511448466 0.0281039327
v -0.0227313401 -0.03766246 0.0276459692
v -0.0138973756 -0.0613492261 0.0188281558
v -0.015109616 -0.0603379323 0.0178481173
v -0.0231505199 -0.0615690535 0.0258950931
f 6 3 4
f 7 6 1
f 7 3 6
f 10 6 4
f 11 2 3
f 11 3 7
f 22 3 2
f 22 13 21
f 23 18 8
f 24 23 14
f 28 16 4
f 28 4 3
f 28 3 21
f 29 6 10
f 31 2 11
f 32 8 18
f 32 20 8
f 33 11 7
f 33 31 11
f 33 18 31
f 34 5 19
f 34 12 30
f 35 19 5
f 36 20 32
f 37 19 35
f 37 35 8
f 37 8 20
f 37 34 19
f 37 12 34
f 38 21 13
f 39 22 2
f 39 13 22
f 39 24 13
f 39 23 24
f 40 22 21
f 40 21 3
f 40 3 22
f 41 24 14
f 42 13 24
f 42 38 13
f 42 9 38
f 42 41 9
f 42 24 41
f 43 4 16
f 45 29 10
f 45 17 29
f 46 34 30
f 46 5 34
f 47 15 27
f 47 46 26
f 48 25 9
f 48 41 27
f 48 9 41
f 48 27 15
f 48 15 25
f 49 30 12
f 49 6 30
f 50 29 17
f 50 46 30
f 50 26 46
f 50 45 26
f 50 17 45
f 51 30 6
f 51 6 29
f 51 50 30
f 51 29 50
f 52 33 7
f 52 7 1
f 52 1 33
f 53 32 18
f 53 18 33
f 53 33 1
f 53 36 32
f 53 1 36
f 54 35 14
f 54 14 23
f 54 23 8
f 54 8 35
f 55 35 5
f 55 27 41
f 55 41 14
f 55 14 35
f 55 47 27
f 55 5 46
f 55 46 47
f 56 36 1
f 56 1 6
f 56 6 49
f 57 37 20
f 57 12 37
f 57 49 12
f 57 20 36
f 57 56 49
f 57 36 56
f 58 18 23
f 58 23 39
f 58 31 18
f 58 39 2
f 58 2 31
f 59 9 25
f 59 25 43
f 59 38 9
f 59 21 38
f 60 43 16
f 60 16 28
f 60 59 43
f 60 28 21
f 60 21 59
f 61 43 25
f 61 4 43
f 62 44 25
f 62 25 15
f 63 44 10
f 63 10 4
f 63 25 44
f 63 61 25
f 63 4 61
f 64 10 44
f 64 45 10
f 64 26 45
f 64 47 26
f 64 15 47
f 64 62 15
f 64 44 62
f 70 68 67
f 74 66 70
f 74 67 72
f 75 68 70
f 76 71 67
f 76 67 68
f 77 71 65
f 77 72 67
f 77 67 71
f 79 74 70
f 79 70 67
f 79 67 74
f 80 74 72
f 80 66 74
f 81 73 78
f 81 75 70
f 81 70 66
f 83 76 68
f 83 68 75
f 84 65 73
f 85 78 73
f 86 65 71
f 87 72 77
f 87 77 84
f 88 81 69
f 88 75 81
f 89 81 78
f 90 81 66
f 90 73 81
f 90 87 84
f 90 84 73
f 92 71 76
f 92 76 82
f 92 91 71
f 93 84 77
f 93 77 65
f 93 65 84
f 94 85 73
f 94 73 65
f 95 80 72
f 95 72 87
f 96 75 88
f 97 89 71
f 97 81 89
f 97 71 91
f 98 86 71
f 98 71 89
f 98 89 78
f 100 78 85
f 100 85 94
f 100 94 65
f 101 66 80
f 101 80 95
f 101 90 66
f 101 95 87
f 101 87 90
f 102 96 83
f 102 83 75
f 102 75 96
f 103 76 83
f 103 83 96
f 104 69 81
f 104 81 97
f 105 98 78
f 105 86 98
f 105 78 100
f 105 100 65
f 105 65 86
f 106 99 69
f 106 91 92
f 106 69 104
f 106 104 97
f 106 97 91
f 107 88 69
f 107 69 99
f 108 82 76
f 108 76 103
f 108 88 107
f 108 103 96
f 108 96 88
f 109 107 99
f 109 106 92
f 109 99 106
f 110 108 107
f 110 82 108
f 110 107 109
f 110 109 92
f 110 92 82
f 117 111 113
f 117 114 111
f 118 113 111
f 119 115 111
f 119 111 114
f 123 118 111
f 123 111 115
f 124 119 114
f 126 112 116
f 127 113 118
f 127 126 120
f 127 112 126
f 127 125 113
f 127 120 125
f 128 121 116
f 128 116 112
f 128 123 115
f 128 112 123
f 129 117 113
f 129 113 125
f 130 122 116
f 130 116 121
f 131 115 119
f 131 119 124
f 134 125 120
f 134 116 125
f 135 126 116
f 135 120 126
f 135 134 120
f 135 116 134
f 136 123 112
f 136 112 127
f 136 127 118
f 136 118 123
f 137 129 122
f 137 117 129
f 137 122 130
f 138 129 125
f 138 125 116
f 138 116 122
f 138 122 129
f 141 124 114
f 143 142 133
f 143 121 142
f 144 137 130
f 144 114 117
f 144 117 137
f 145 131 124
f 145 124 139
f 145 115 131
f 146 140 128
f 146 128 115
f 146 115 140
f 147 140 115
f 147 132 140
f 147 115 145
f 148 142 121
f 148 140 132
f 148 132 142
f 149 139 124
f 149 124 141
f 149 141 133
f 149 133 142
f 149 142 132
f 150 130 121
f 150 121 143
f 150 144 130
f 150 143 144
f 151 144 143
f 151 143 133
f 151 133 141
f 151 141 114
f 151 114 144
f 152 147 145
f 152 145 139
f 152 132 147
f 152 149 132
f 152 139 149
f 153 148 121
f 153 121 128
f 153 128 140
f 153 140 148
f 154 156 157
f 159 156 155
f 160 155 156
f 160 156 154
f 162 157 156
f 162 156 159
f 164 161 154
f 164 154 157
f 165 154 161
f 166 159 163
f 167 163 159
f 167 159 155
f 169 158 161
f 169 161 164
f 170 157 162
f 170 162 159
f 170 159 166
f 171 154 165
f 172 166 163
f 173 161 158
f 173 158 168
f 174 168 158
f 174 163 168
f 174 172 163
f 174 158 172
f 175 165 161
f 177 164 157
f 177 157 170
f 179 160 154
f 179 154 171
f 179 155 160
f 180 172 158
f 180 158 169
f 181 173 168
f 181 161 173
f 181 175 161
f 181 176 175
f 181 168 176
f 182 176 168
f 182 168 163
f 182 163 167
f 183 175 176
f 183 182 167
f 183 176 182
f 184 170 166
f 184 177 170
f 184 164 177
f 185 169 164
f 185 184 178
f 185 164 184
f 186 179 171
f 186 167 155
f 186 155 179
f 186 183 167
f 186 171 183
f 187 180 169
f 187 185 178
f 187 169 185
f 188 166 172
f 188 172 180
f 188 187 178
f 188 180 187
f 189 165 175
f 189 175 183
f 189 183 171
f 189 171 165
f 190 184 166
f 190 166 188
f 190 188 178
f 190 178 184
f 196 194 193
f 197 193 194
f 198 197 191
f 198 193 197
f 198 196 193
f 198 192 196
f 199 196 192
f 200 194 196
f 200 197 194
f 200 196 199
f 201 198 191
f 201 192 198
f 201 199 192
f 202 191 197
f 203 200 195
f 203 197 200
f 204 200 199
f 204 195 200
f 204 199 202
f 204 203 195
f 205 201 191
f 205 199 201
f 205 202 199
f 205 191 202
f 206 202 197
f 206 204 202
f 206 203 204
f 207 206 197
f 207 197 203
f 207 203 206
f 208 209 210
f 212 209 208
f 212 208 211
f 213 208 210
f 213 210 211
f 213 211 208
f 214 209 212
f 215 210 209
f 215 209 214
f 215 211 210
f 215 214 212
f 215 212 211
f 216 217 218
f 220 217 216
f 221 216 218
f 221 218 219
f 221 220 216
f 221 219 220
f 222 218 217
f 223 222 217
f 223 217 220
f 227 220 219
f 227 219 224
f 227 224 226
f 228 219 218
f 229 224 219
f 230 226 222
f 230 222 223
f 232 228 225
f 232 225 219
f 232 219 228
f 233 228 218
f 233 218 222
f 233 225 228
f 233 229 219
f 233 219 225
f 234 224 229
f 234 229 233
f 235 227 226
f 235 226 230
f 236 230 223
f 236 223 220
f 236 235 230
f 237 231 226
f 237 226 224
f 237 222 231
f 237 224 234
f 238 231 222
f 238 222 226
f 238 226 231
f 239 234 233
f 239 233 222
f 239 237 234
f 239 222 237
f 240 236 220
f 240 220 227
f 240 227 235
f 240 235 236
f 246 243 242
f 246 244 243
f 247 241 243
f 247 243 244
f 248 242 243
f 248 243 241
f 250 246 242
f 252 247 244
f 252 244 246
f 252 246 250
f 255 249 245
f 255 245 254
f 256 251 241
f 256 241 247
f 256 254 245
f 257 241 251
f 258 248 241
f 258 241 253
f 258 242 248
f 259 253 241
f 259 249 253
f 259 257 249
f 259 241 257
f 260 253 249
f 260 258 253
f 260 242 258
f 261 255 254
f 261 254 256
f 262 255 250
f 262 250 242
f 262 249 255
f 262 260 249
f 262 242 260
f 263 256 245
f 263 251 256
f 264 245 249
f 264 249 257
f 264 263 245
f 264 257 251
f 264 251 263
f 265 261 252
f 265 252 250
f 265 250 255
f 265 255 261
f 266 247 252
f 266 252 261
f 266 261 256
f 266 256 247
f 272 270 267
f 273 272 267
f 274 271 268
f 274 273 267
f 275 267 270
f 275 274 267
f 275 271 274
f 278 268 276
f 279 272 273
f 279 277 272
f 279 269 277
f 280 275 270
f 280 271 275
f 280 276 271
f 281 276 268
f 281 268 271
f 281 271 276
f 282 270 272
f 282 272 277
f 283 277 269
f 284 273 278
f 285 278 273
f 285 273 274
f 285 274 268
f 285 268 278
f 286 282 277
f 287 283 269
f 287 276 283
f 287 269 284
f 287 284 278
f 287 278 276
f 288 283 276
f 288 276 280
f 288 280 270
f 288 286 277
f 288 277 283
f 289 284 269
f 289 269 279
f 289 279 273
f 289 273 284
f 290 270 282
f 290 282 286
f 290 288 270
f 290 286 288
f 296 294 293
f 297 291 293
f 297 293 294
f 298 293 291
f 299 296 293
f 299 292 296
f 299 298 292
f 299 293 298
f 301 297 294
f 301 295 297
f 303 302 292
f 305 301 294
f 305 294 296
f 307 292 302
f 307 302 306
f 308 303 292
f 308 292 298
f 308 298 291
f 309 302 303
f 310 304 301
f 310 300 304
f 310 301 305
f 311 295 301
f 311 301 304
f 311 304 307
f 311 307 306
f 312 304 300
f 312 307 304
f 312 296 292
f 312 292 307
f 312 300 310
f 312 310 305
f 312 305 296
f 313 297 295
f 313 295 306
f 313 309 297
f 313 306 302
f 313 302 309
f 314 308 291
f 314 303 308
f 314 309 303
f 315 297 309
f 316 311 306
f 316 306 295
f 316 295 311
f 317 291 297
f 317 297 315
f 317 314 291
f 317 315 309
f 317 309 314
f 318 320 321
f 323 322 321
f 324 319 320
f 324 320 318
f 324 322 319
f 324 318 322
f 325 322 318
f 325 318 321
f 325 321 322
f 326 320 319
f 326 319 323
f 327 323 321
f 327 321 320
f 327 326 323
f 327 320 326
f 328 323 319
f 328 319 322
f 328 322 323
