# Generated by scripts/generate_banana_vhacd.py; do not edit manually.
v 0.0122350489 0.0419196886 0.0323203836
v 0.0258154034 0.0439634724 0.0168972267
v 0.0139346848 0.043636022 0.0176315659
v 0.01214951 0.0437284748 0.00325777045
v 0.0126027214 0.0263654729 0.0200268768
v 0.020263889 0.0443841817 0.00816312058
v 0.013763576 0.0423327967 0.0313009312
v 0.0116047434 0.030206255 0.0258191861
v 0.0138407221 0.0438905694 0.00376571435
v 0.0115803579 0.035554682 0.00646919125
v 0.0118383596 0.036978714 0.0304802964
v 0.0195362616 0.0376111846 0.0214395611
v 0.0187897383 0.0440695002 0.00659007277
v 0.0132262092 0.0425067619 0.00405178794
v 0.0117453158 0.0268192819 0.022322054
v 0.0132778119 0.0405596588 0.0310150586
v 0.0115552533 0.040625341 0.0322743519
v 0.0157417706 0.0309892778 0.0199847396
v 0.0185759158 0.0421691472 0.0267782606
v 0.0121902166 0.0421210226 0.00388590519
v 0.012140827 0.0285095539 0.0172461861
v 0.0256107217 0.0438715011 0.0172317888
v 0.0144488388 0.0375366006 0.0281378044
v 0.0194283914 0.0393588778 0.0230897658
v 0.0129050745 0.0373354744 0.0296105712
v 0.0103962926 0.0607489445 0.0169752533
v 0.0136821988 0.0378329997 0.0191504402
v 0.0133023207 0.0379673228 0.0109566721
v -0.0112086513 0.0500565286 0.0107056766
v -0.0115874459 0.0504939188 0.0197248462
v -0.00649459505 0.037844526 0.0104525518
v 0.0126439804 0.060600268 0.0112092363
v -0.011006828 0.0602163341 0.0192868199
v -0.00638854057 0.0378677659 0.0188316295
v -0.00958675821 0.0591067091 0.0122432842
v 0.0041948545 0.0569677923 0.0345363008
v 0.00412588918 0.0500702334 0.0352352249
v 0.00368415271 0.050534004 0.0192347438
v -0.011006828 0.0602163341 0.0192868199
v -0.0134556241 0.0491496969 0.0316645621
v 0.00416298879 0.0601591935 0.0188532031
v -0.00589674457 0.0497810844 0.0346653183
v -0.00562458736 0.0599953414 0.0309177928
v -0.0115874459 0.0504939188 0.0197248462
v 0.00420093157 0.055097426 0.0347793141
v -0.0109764577 0.0492777389 0.0333645742
v -0.0131417809 0.054335091 0.0271978968
v 0.00414097525 0.0604934565 0.029603905
v -0.00660989992 0.0562438887 0.0327061256
v -0.000711808212 0.0549119799 0.0345201497
v -0.00948082973 0.059017415 0.0269009134
v -0.00770120994 0.0587037121 0.0299670776
v -0.0160356296 0.049895705 0.0276540107
v -0.00561226072 0.0513803741 0.0344298818
v -0.00986201742 0.0524355586 0.0326955984
v -0.0127588076 0.0538488493 0.02837008
v -0.0153857505 0.0494697329 0.029004981
v -0.0154121125 0.0511711275 0.0272557255
v -0.00404346993 0.053160234 0.0343834046
v -0.0128034511 0.0505102952 0.031396984
v -0.0148350399 0.0507295926 0.0285825146
v -0.0102368259 0.0578585696 0.027292468
v -0.0110171274 0.0502567758 0.0278799864
v -0.00996566639 0.0580637799 0.0117653027
v -0.014808176 0.0502420035 0.0106693266
v -0.0147235679 0.0501810274 0.0279575971
v -0.0112086513 0.0500565286 0.0107056766
v -0.0128911446 0.0572830455 0.0150798183
v -0.0104923843 0.0597918841 0.0145567184
v -0.0129817738 0.0544192722 0.0116418387
v -0.0129782065 0.057235793 0.022298663
v -0.0103165232 0.0596177325 0.0241237331
v -0.0110743487 0.0571786407 0.0120598544
v -0.0131417809 0.054335091 0.0271978968
v -0.0114611352 0.058888365 0.0148965811
v -0.0129944167 0.0557214885 0.0254676131
v -0.0110546491 0.0588859146 0.023852621
v -0.0111715045 0.0571457712 0.0267717123
v 0.0130054101 0.0566256725 0.0338581475
v 0.0115351852 0.0387960848 0.0314471221
v 0.0136821988 0.0378329997 0.0191504402
v 0.0103962926 0.0607489445 0.0169752533
v 0.0041948545 0.0569677923 0.0345363008
v 0.0121053918 0.0608446648 0.029792178
v 0.00408160955 0.0381146671 0.0354612093
v 0.00414097525 0.0604934565 0.029603905
v 0.0113467794 0.0423353376 0.0331316887
v 0.00723170048 0.054794931 0.0346838635
v 0.00402843091 0.0382312193 0.019616031
v 0.00648173639 0.0386870853 0.0347818318
v 0.00910465886 0.0534913946 0.0345801717
v 0.00420093157 0.055097426 0.0347793141
v 0.00416298879 0.0601591935 0.0188532031
v 0.00971039585 0.0388982162 0.0329082323
v 0.00819308996 0.0403896325 0.0343205119
v 0.0243870646 0.0555289827 0.0291944593
v 0.0332015631 0.0554215575 0.0175454904
v 0.0303923944 0.0561241975 0.0234840895
v 0.0112699632 0.0561306841 0.0174541086
v 0.0196548868 0.0398268131 0.0227636607
v 0.0326178174 0.0557315618 0.0199577923
v 0.0257151962 0.0559732967 0.0282443114
v 0.0125503228 0.0415989629 0.0277458881
v 0.019543472 0.040037501 0.0175430188
v 0.0231904872 0.0409330603 0.0185066248
v 0.0217430459 0.0406679895 0.0211895951
v 0.0135021859 0.0551486619 0.0281584772
v 0.0193003648 0.0429823241 0.0265396123
v 0.0328748291 0.0538450073 0.0169049103
v 0.0140581172 0.0432812199 0.0169477074
v 0.0234504739 0.0408136177 0.0174574008
v 0.0297746468 0.0548629947 0.0232484362
v 0.0245339279 0.0516271446 0.0268037096
v 0.0248642777 0.0426966661 0.0171225171
v 0.0250508036 0.0544647755 0.0280105684
v 0.0240642338 0.0541072657 0.0286975868
v 0.0343021159 0.0557479813 0.0166688482
v 0.0362968486 0.0559400965 0.011000608
v 0.0112699632 0.0561306841 0.0174541086
v 0.0128119428 0.0552436865 7.71519741e-05
v 0.01214951 0.0437284748 0.00325777045
v 0.0295147802 0.0560973439 0.00347283616
v 0.0360590304 0.0561047411 0.0123119653
v 0.0262780816 0.0445797144 0.0167876334
v 0.011984915 0.0474737293 0.00132508181
v 0.0174832543 0.0557687917 0.000444351258
v 0.0345260126 0.0562350885 0.00831798733
v 0.0139346848 0.043636022 0.0176315659
v 0.0334865372 0.0546605859 0.0168037385
v 0.0123640795 0.0523491945 0.000305329916
v 0.0138407221 0.0438905694 0.00376571435
v 0.0197483739 0.0447962648 0.00686221021
v 0.0141024996 0.0522923148 0.000570988774
v 0.0290992261 0.0552772001 0.00385174375
v 0.0198816485 0.0461445015 0.00574419326
v 0.013268 0.064837 0.032663
v 0.0130054101 0.0566256725 0.0338581475
v 0.0132011209 0.0602876449 0.0280300348
v 0.00174174114 0.0693654196 0.0271653774
v -0.00532626684 0.0563745486 0.0331789307
v 0.0125049721 0.0708453617 0.027867065
v 0.0044729006 0.0646299042 0.0327575896
v 0.0127711909 0.0570367642 0.0296869395
v -0.00772446803 0.0603380071 0.0278458711
v 0.00341515166 0.0675539239 0.0312163477
v -0.00699561341 0.0614238782 0.0274249888
v -0.00598233661 0.0568484741 0.0295286247
v 0.00139315909 0.0634117915 0.0325659527
v -0.00466370062 0.0606039075 0.0312160315
v 0.00959672737 0.0698468393 0.0313306906
v -0.00725605127 0.059728411 0.0290492864
v -0.00357719009 0.0593890603 0.0326271701
v -0.00449277127 0.0622482274 0.0297847877
v 0.00362628098 0.0689743643 0.0298847719
v 0.012714737 0.0701198613 0.0313466621
v 0.00797034443 0.0692798943 0.0313444876
v -0.00511999958 0.057749839 0.0327315166
v -0.00290206079 0.062313537 0.0312353088
v -0.00657107325 0.061002573 0.0287034678
v -0.000963004303 0.0655150494 0.0297713773
v 0.00229720139 0.0690875575 0.0283821741
v 0.0281254742 0.0640679771 0.00931908365
v 0.0279837514 0.0552949704 0.0093316592
v 0.0279842187 0.0640286941 0.000486909126
v 0.0129271277 0.0636573204 0.000156779755
v 0.013165915 0.0555026387 0.00989829489
v 0.0128119428 0.0552436865 7.71519741e-05
v 0.0127212192 0.0637690917 0.00884914379
v 0.0281153407 0.0571549105 0.00246048273
v 0.0280104231 0.0624677454 0.000665519234
v 0.0279144423 0.0558701852 0.0031078214
v 0.019334371 0.0555906143 0.00108811854
v 0.0190855153 0.0686711588 0.0309249603
v 0.0271767872 0.0559502929 0.026876874
v 0.0281888358 0.0706207503 0.0277701388
v 0.0131693671 0.0765200147 0.0257118945
v 0.0122350489 0.0419196886 0.0323203836
v 0.0214395607 0.0787725427 0.025837751
v 0.0126846069 0.0634614205 0.0330051403
v 0.0125503228 0.0415989629 0.0277458881
v 0.0218715817 0.0558387377 0.0311718465
v 0.0185759158 0.0421691472 0.0267782606
v 0.0211388545 0.0765397849 0.0278390985
v 0.0120477471 0.0709004282 0.0258537815
v 0.025177463 0.0577154549 0.0295509418
v 0.0117109477 0.0435377171 0.0333313319
v 0.0221153379 0.060587656 0.0311257266
v 0.01665509 0.0777713985 0.0254821951
v 0.0162259048 0.0425804266 0.0295087576
v 0.0208749117 0.0733772587 0.0292195938
v 0.0216679945 0.0779874608 0.0268367451
v 0.0131273441 0.0733896709 0.0297865898
v 0.0162397749 0.0459504308 0.0311572286
v 0.0265643132 0.0563244372 0.0277044893
v 0.012714737 0.0701198613 0.0313466621
v 0.026009 0.066747 0.029229
v 0.0158107094 0.0618500788 0.0327443606
v 0.0218231208 0.0474967898 0.0267767848
v 0.0241002499 0.0703408735 0.0292436839
v 0.0148615266 0.0757377518 0.0280276839
v 0.0132484691 0.0444855784 0.0326638924
v 0.016049937 0.0704370909 0.0309659441
v 0.0140515538 0.0635815061 0.0327885851
v 0.0177167338 0.0582419349 0.0326630106
v 0.0275971377 0.0704019251 0.0280466514
v 0.0132878919 0.0759954776 0.0269362033
v 0.0167217831 0.0771946545 0.0265970637
v 0.0169007985 0.0509431832 0.032673037
f 1 3 4
f 6 3 2
f 7 2 3
f 7 3 1
f 9 4 3
f 9 3 6
f 10 6 2
f 10 2 5
f 13 9 6
f 13 6 10
f 14 4 9
f 14 13 10
f 14 9 13
f 15 8 10
f 15 12 8
f 15 5 12
f 16 7 1
f 17 10 8
f 17 8 11
f 17 4 10
f 17 1 4
f 17 16 1
f 17 11 16
f 18 12 5
f 18 5 2
f 19 8 12
f 19 16 11
f 19 2 7
f 19 7 16
f 20 14 10
f 20 10 4
f 20 4 14
f 21 15 10
f 21 10 5
f 21 5 15
f 22 18 2
f 22 12 18
f 22 2 19
f 23 11 8
f 23 8 19
f 24 22 19
f 24 19 12
f 24 12 22
f 25 23 19
f 25 19 11
f 25 11 23
f 31 28 27
f 31 30 29
f 32 31 29
f 32 28 31
f 32 26 27
f 32 27 28
f 33 30 27
f 33 27 26
f 33 29 30
f 33 26 32
f 34 31 27
f 34 27 30
f 34 30 31
f 35 33 32
f 35 32 29
f 35 29 33
f 40 38 37
f 41 38 39
f 41 37 38
f 44 39 38
f 44 38 40
f 45 41 36
f 45 37 41
f 46 40 37
f 46 37 42
f 48 41 39
f 48 39 43
f 48 43 36
f 48 36 41
f 49 36 43
f 50 42 37
f 50 37 45
f 50 45 36
f 50 36 49
f 51 43 39
f 51 39 47
f 52 51 47
f 52 43 51
f 53 39 44
f 54 49 46
f 54 46 42
f 55 49 43
f 55 40 46
f 55 46 49
f 55 43 52
f 56 52 47
f 57 53 44
f 57 44 40
f 58 47 39
f 58 39 53
f 58 56 47
f 59 50 49
f 59 49 54
f 59 54 42
f 59 42 50
f 60 55 52
f 60 40 55
f 60 52 56
f 60 57 40
f 61 53 57
f 61 58 53
f 61 56 58
f 61 60 56
f 61 57 60
f 62 63 64
f 66 63 62
f 67 64 63
f 67 65 64
f 67 66 65
f 67 63 66
f 70 64 65
f 70 65 68
f 71 68 65
f 71 65 66
f 72 62 64
f 72 64 69
f 72 69 71
f 73 69 64
f 73 64 70
f 73 70 68
f 74 66 62
f 75 71 69
f 75 68 71
f 75 73 68
f 75 69 73
f 76 71 66
f 76 66 74
f 77 76 72
f 77 72 71
f 77 71 76
f 78 76 74
f 78 74 62
f 78 62 72
f 78 72 76
f 79 80 81
f 84 79 81
f 84 81 82
f 84 83 79
f 85 81 80
f 86 84 82
f 86 83 84
f 86 85 83
f 87 80 79
f 88 79 83
f 89 82 81
f 89 81 85
f 89 85 86
f 90 79 85
f 91 88 85
f 91 85 79
f 91 79 88
f 92 88 83
f 92 83 85
f 92 85 88
f 93 89 86
f 93 86 82
f 93 82 89
f 94 90 85
f 94 85 80
f 94 80 87
f 94 87 90
f 95 90 87
f 95 87 79
f 95 79 90
f 101 97 99
f 101 99 98
f 102 98 99
f 104 100 103
f 107 102 99
f 107 96 102
f 107 103 96
f 107 99 103
f 108 100 106
f 108 103 100
f 108 96 103
f 109 99 97
f 109 97 101
f 109 106 105
f 109 101 106
f 110 104 103
f 110 103 99
f 110 99 109
f 111 100 104
f 111 109 105
f 111 106 100
f 111 105 106
f 112 106 101
f 112 101 98
f 112 108 106
f 112 98 108
f 113 108 98
f 114 110 109
f 114 109 111
f 114 111 104
f 114 104 110
f 115 102 96
f 115 108 113
f 115 113 98
f 115 98 102
f 116 115 96
f 116 96 108
f 116 108 115
f 123 119 117
f 124 118 123
f 125 121 119
f 126 120 119
f 126 119 122
f 126 122 125
f 127 122 119
f 127 119 123
f 127 123 118
f 128 119 121
f 128 121 124
f 129 124 123
f 129 123 117
f 129 128 124
f 129 117 119
f 129 119 128
f 130 125 119
f 130 119 120
f 130 120 126
f 131 125 122
f 131 121 125
f 131 124 121
f 132 127 118
f 132 118 124
f 132 124 131
f 133 130 126
f 133 126 125
f 133 125 130
f 134 131 122
f 134 122 127
f 134 127 132
f 135 134 132
f 135 132 131
f 135 131 134
f 136 137 138
f 141 136 138
f 141 138 139
f 142 140 137
f 142 137 136
f 143 138 137
f 143 137 140
f 146 139 138
f 146 138 144
f 147 143 140
f 147 140 144
f 147 144 138
f 147 138 143
f 148 140 142
f 148 142 145
f 150 141 139
f 151 144 140
f 152 148 145
f 152 140 148
f 154 150 139
f 155 136 141
f 155 141 150
f 155 150 142
f 155 142 136
f 156 145 142
f 156 142 150
f 156 154 145
f 156 150 154
f 157 151 140
f 157 149 151
f 157 140 152
f 158 152 145
f 158 157 152
f 158 149 157
f 158 153 149
f 159 153 146
f 159 146 144
f 159 144 151
f 159 151 149
f 159 149 153
f 160 139 146
f 160 146 153
f 160 153 158
f 160 158 145
f 160 145 154
f 161 160 154
f 161 154 139
f 161 139 160
f 166 163 162
f 167 165 164
f 167 163 166
f 168 162 164
f 168 164 165
f 168 166 162
f 168 167 166
f 168 165 167
f 169 162 163
f 170 167 164
f 170 164 162
f 170 162 169
f 171 169 163
f 171 163 167
f 172 170 169
f 172 167 170
f 172 171 167
f 172 169 171
f 178 175 174
f 182 177 180
f 184 182 180
f 186 184 180
f 186 180 177
f 187 181 185
f 188 178 174
f 188 184 176
f 188 182 184
f 189 182 174
f 189 177 182
f 190 175 183
f 191 183 175
f 191 175 178
f 192 176 184
f 192 183 191
f 193 185 181
f 193 189 185
f 193 177 189
f 194 174 175
f 194 175 185
f 194 189 174
f 194 185 189
f 195 186 179
f 195 184 186
f 195 192 184
f 195 183 192
f 196 187 185
f 196 185 175
f 197 196 173
f 197 187 196
f 198 188 174
f 198 174 182
f 198 182 188
f 199 190 173
f 199 175 190
f 199 173 196
f 200 192 191
f 200 191 178
f 201 186 177
f 201 177 193
f 201 193 181
f 202 195 179
f 202 173 190
f 202 190 183
f 202 183 195
f 203 197 173
f 203 179 197
f 203 202 179
f 203 173 202
f 204 197 179
f 204 179 186
f 204 181 187
f 204 187 197
f 205 199 196
f 205 196 175
f 205 175 199
f 206 188 176
f 206 176 192
f 206 192 200
f 207 200 178
f 207 178 188
f 207 206 200
f 207 188 206
f 208 201 181
f 208 186 201
f 208 204 186
f 208 181 204
