# Generated by scripts/generate_banana_vhacd.py; do not edit manually.
v 0.000698967397 0.0295590559 0.0196806461
v 0.000601836024 0.0172779367 0.0189399439
v 0.000259153365 0.0298596507 0.00194094946
v -0.0129206219 0.0295496647 0.000400049459
v -0.0137357657 0.0181639717 0.0200240648
v -0.0129832972 0.0175451611 0.00057538891
v -0.0128427633 0.0298362654 0.0193758197
v -0.000182106761 0.0179054883 0.00511233041
v -0.0108267272 0.0292633779 0.000529150043
v -0.00221779721 0.0178634253 0.00338052803
v -0.0112897577 0.0243817027 0.000556655005
v -0.00741334784 0.0181555899 0.00162829595
v -0.000816025254 0.0216601926 0.00333393015
v -0.0128270667 0.0244140642 0.000469733832
v -7.00548374e-05 0.0266064755 0.00253770542
v -0.0222683133 0.0314102041 0.0326010017
v -0.0229897137 0.0292014446 0.032728288
v -0.0230437207 0.0294467933 0.00579156517
v -0.0222060101 0.032468091 0.00648390453
v -0.0281140904 0.0336235867 0.0179389122
v -0.0288041939 0.0290824763 0.0240529775
v -0.0222544619 0.0376396204 0.0289358811
v -0.0284991518 0.0285856282 0.0129913719
v -0.0252303118 0.0289524171 0.0302924969
v -0.0229579658 0.0379184355 0.0111618094
v -0.0247569113 0.0370331465 0.0250346987
v -0.0248684396 0.0304534628 0.00862498209
v -0.0237291482 0.0291082964 0.00639374268
v -0.023789395 0.0291130149 0.0320704361
v -0.0262696915 0.0319141114 0.0267438867
v -0.0262657423 0.0368745501 0.0164654908
v -0.026149 0.037607 0.019491
v -0.0248814508 0.0332244844 0.0104433987
v -0.025313001 0.028941711 0.00831995304
v -0.0230352644 0.0320397883 0.00722670928
v -0.0234677556 0.0305514735 0.0316933041
v -0.0245516061 0.0337035028 0.028268664
v -0.0280582053 0.0320019695 0.0149152731
v -0.0280502483 0.0336948328 0.0191492101
v -0.0282890679 0.0304417405 0.0238380958
v -0.0235893385 0.0374067448 0.0116174597
v -0.024838924 0.0304528327 0.029962761
v -0.0229315911 0.0370856815 0.028277347
v -0.0281614087 0.0306573802 0.0139299951
v -0.0247787031 0.0371671056 0.0134454341
v 0.00090756141 0.0379133214 0.0358234831
v -0.000794977596 0.0182074659 0.0327848753
v 0.000815103609 0.038196252 0.0194162251
v -0.0131083703 0.0381940546 0.0194965337
v -0.0129643316 0.0175396808 0.0362011608
v 0.000601836024 0.0172779367 0.0189399439
v -0.0126814594 0.0379477937 0.0350789808
v -0.00380587007 0.018006517 0.0348988779
v -0.0137357657 0.0181639717 0.0200240648
v -0.000351421673 0.0249184869 0.0347065064
v -0.00140258336 0.0173784418 0.0192148182
v -0.0126814594 0.0379477937 0.0350789808
v -0.0125850712 0.029589324 0.0359323081
v -0.0128427633 0.0298362654 0.0193758197
v -0.0233097972 0.0382619188 0.0194611015
v -0.0221744344 0.0290805943 0.0334236863
v -0.0131083703 0.0381940546 0.0194965337
v -0.019381 0.029405 0.034541
v -0.0215784105 0.0372824753 0.0301381872
v -0.0232451767 0.0295050554 0.0192814364
v -0.0139613802 0.0381376848 0.0347806519
v -0.0187087199 0.0375688297 0.0331258375
v -0.0173730771 0.0340797471 0.0344825532
v -0.0216166491 0.0322688494 0.0328415474
v -0.0188164879 0.0312191298 0.0344541725
v -0.0214363351 0.0355098658 0.0314513424
v -0.0197523266 0.0356821327 0.0330408943
v 0.000374568337 0.0297218465 0.0355241311
v 0.0116047434 0.030206255 0.0258191861
v 0.00268393684 0.0301976698 0.0029918033
v 0.000752323804 0.0295509849 0.00218496649
v 0.000464340039 0.0176894482 0.00614431641
v 0.00809587466 0.0302422748 0.0303444729
v 5.32193762e-05 0.0195289493 0.00480477604
v 0.0116284042 0.0303991019 0.0130494421
v 0.00181136603 0.0299676459 0.0349283801
v -0.000108925442 0.0178894215 0.03205608
v -0.000104969635 0.0262805158 0.0349522618
v 0.000386730397 0.0245940813 0.00321635888
v 0.0108440797 0.0240231342 0.0204434412
v 0.00984780463 0.0302457651 0.0286095703
v 0.00962790994 0.0304567962 0.0083478115
v 0.00666162544 0.0300350377 0.0315023782
v 0.00113658561 0.0267654973 0.0343542173
v 0.0109876893 0.0242144083 0.0204094248
v 0.00546136279 0.0185501742 0.0243819908
v 0.0066898593 0.0283616014 0.00593380065
v 0.00343046879 0.0183501046 0.00869643677
v 0.00557796749 0.0184477526 0.0160879027
v 0.00410820847 0.0184375001 0.0270812515
v 0.00685417609 0.0299266497 0.00557362203
v 0.00219009689 0.0184914066 0.00644104119
v 0.0107342745 0.0288930868 0.0126328498
v 0.000753069958 0.018264752 0.0313645958
v 0.00564184354 0.020331938 0.0265298996
v 0.00911684893 0.0289397578 0.0285788503
v 0.0113864533 0.0285439885 0.0247117688
v 0.0136821988 0.0378329997 0.0191504402
v 0.0123717554 0.0297690796 0.0193171796
v 0.012056647 0.038659579 0.00507426184
v -0.0111509451 0.0380328193 0.000536519462
v -0.0233097972 0.0382619188 0.0194611015
v -0.0108267272 0.0292633779 0.000529150043
v 0.00498466486 0.0387094735 0.00142252283
v 0.00685417609 0.0299266497 0.00557362203
v -0.0222821955 0.0290986494 0.00474683415
v -0.00288883244 0.0383463485 0.00051009389
v 0.0105805317 0.0308500591 0.00974635575
v 0.00191315597 0.0299443889 0.00253615898
v -0.0215730968 0.0372551293 0.00861527387
v -0.0188700421 0.0290248854 0.00157285774
v -0.0232451767 0.0295050554 0.0192814364
v -0.00223558853 0.0361518286 0.000558240126
v -0.0144756419 0.0294527199 0.000450755976
v 0.01081397 0.0359386587 0.00555933133
v -0.0152023924 0.037532364 0.00193245221
v -0.0143992791 0.0328465589 0.000661038469
v -0.00826456587 0.0316241105 0.000507810588
v -0.0185597717 0.0305702171 0.00182545988
v -0.0211936858 0.0349779159 0.00672243013
v -0.0125976427 0.0362694258 0.00063261612
v -0.0162491471 0.0352982065 0.00180672578
v -0.0199216624 0.032180543 0.00381089678
v -0.0215355635 0.0321408916 0.00550883975
v 0.00648173639 0.0386870853 0.0347818318
v 0.0123717554 0.0297690796 0.0193171796
v 0.0136821988 0.0378329997 0.0191504402
v 0.000815103609 0.038196252 0.0194162251
v 0.000374568337 0.0297218465 0.0355241311
v 0.0115351852 0.0387960848 0.0314471221
v 0.00090756141 0.0379133214 0.0358234831
v 0.000698967397 0.0295590559 0.0196806461
v 0.0114498122 0.0371919993 0.0309123869
v 0.0108354988 0.0306061009 0.0269961692
v 0.00287630602 0.0302696936 0.0344410816
v 0.010987867 0.0322827281 0.0286574839
v 0.00640289085 0.0365867757 0.034277847
v 0.00949259335 0.0338322821 0.0309434388
v -0.0142108158 0.0446718652 0.0333873647
v -0.0149444872 0.0382180035 0.0345315451
v -0.0147547352 0.0380855178 0.0108750877
v -0.0144899663 0.051712152 0.0108748414
v -0.0256014616 0.0374235444 0.0221215784
v -0.013611459 0.05614249 0.014763671
v -0.0138302122 0.0478740136 0.0321930073
v -0.020352 0.037179 0.031769
v -0.0235893385 0.0374067448 0.0116174597
v -0.0144411747 0.0554881038 0.0222373672
v -0.0187087199 0.0375688297 0.0331258375
v -0.0193949144 0.0454372119 0.0266936664
v -0.0178567868 0.0505579635 0.0152059517
v -0.0137799458 0.0562377684 0.022402822
v -0.0165442466 0.0422678068 0.032822469
v -0.0192827263 0.0437965351 0.0284852494
v -0.0196934595 0.0488009967 0.0204873645
v -0.0160661211 0.050456452 0.0119569288
v -0.0246141207 0.0406341771 0.0176945282
v -0.0138104411 0.0546012981 0.0255781475
v -0.0163467237 0.0539902821 0.0179169182
v -0.0154168411 0.0443786558 0.0327280711
v -0.0183353085 0.0390099465 0.0327966028
v -0.022949 0.039396 0.02631
v -0.0229123112 0.0417303106 0.0235517561
v -0.0142873534 0.0555750466 0.0152021251
v -0.0212315405 0.0420840577 0.0119768291
v -0.0253605036 0.0374583514 0.0148625552
v -0.0229191101 0.0439068457 0.0191157506
v -0.0138921236 0.0530173747 0.0275798992
v -0.0161365788 0.0504386547 0.026887724
v -0.0143309814 0.0540994973 0.0252761311
v -0.0158991855 0.0541528096 0.0205441696
v -0.0146592529 0.0473334439 0.0316772355
v -0.0234869641 0.0373867882 0.0271047145
v -0.0248568309 0.0389764702 0.0221520274
v -0.0230899741 0.0387532776 0.0119562809
v -0.0229707863 0.0422391273 0.015294415
v -0.024434521 0.0405376889 0.0206708757
v -0.0194211806 0.0488748682 0.0165067971
v -0.0162132486 0.048713837 0.0284954766
v -0.0196968196 0.0389633378 0.0314457995
v -0.0247895987 0.0388029103 0.0151897243
v -0.0228813567 0.0436989768 0.0177305912
v -0.00589674457 0.0497810844 0.0346653183
v -0.0057504458 0.0378516244 0.0359757429
v -0.00649459505 0.037844526 0.0104525518
v -0.014808176 0.0502420035 0.0106693266
v -0.0141675344 0.0394323547 0.0345240679
v -0.00633762549 0.0503294785 0.0108031116
v -0.0139613802 0.0381376848 0.0347806519
v -0.0134556241 0.0491496969 0.0316645621
v -0.00903054727 0.0479943396 0.0343221516
v -0.0147547352 0.0380855178 0.0108750877
v -0.0119451272 0.0494617516 0.0327983955
v -0.0125811505 0.0430745936 0.0343263035
v -0.00736422471 0.0496331703 0.0343721439
v -0.0132854646 0.0474433452 0.0328261389
v 0.0126439804 0.060600268 0.0112092363
v 0.0133023207 0.0379673228 0.0109566721
v 0.012805835 0.0604127887 -9.6523625e-05
v 0.00475501921 0.0599480189 0.000707599946
v -0.0229579658 0.0379184355 0.0111618094
v -0.00865809601 0.0598922843 0.0119058074
v -0.0111509451 0.0380328193 0.000536519462
v -0.0217573321 0.0407868205 0.0115908013
v 0.00606537224 0.0389432261 0.00193927483
v -0.0202055048 0.0371028466 0.00681814725
v -0.00162613406 0.0527613142 0.000574596836
v -0.00104314054 0.0381759957 0.000559256113
v 0.012056647 0.038659579 0.00507426184
v -0.0222491407 0.0376152216 0.00976996592
v -0.0110855968 0.0504416938 0.00566180181
v 0.0124132053 0.0505530453 0.000634874599
v -0.0152023924 0.037532364 0.00193245221
v -0.0160755712 0.0471591495 0.00884283756
v 0.000136060014 0.0591914024 0.00231665913
v 0.00575490049 0.0433886166 0.000808637133
v -0.016265041 0.042252082 0.00549482276
v -0.00730009806 0.0463199099 0.000757297569
v -0.021020103 0.0403915036 0.0102341133
v -0.0129817738 0.0544192722 0.0116418387
v -0.00850447666 0.0586380196 0.0102486827
v -0.0148068633 0.0389898697 0.00221255747
v -0.0196174483 0.0388098531 0.00714875503
v -0.0109892851 0.0396777425 0.000641877806
v -0.00633439922 0.0524779724 0.00253652195
v -0.012715589 0.0538057538 0.0105114405
v -0.0130672933 0.0423864905 0.00234980035
v -0.00944903034 0.0505044491 0.00400946367
v 0.00412588918 0.0500702334 0.0352352249
v 0.00408160955 0.0381146671 0.0354612093
v 0.00435571827 0.0478493265 0.0189435613
v -0.00581812163 0.0501717334 0.0192649303
v -0.0057504458 0.0378516244 0.0359757429
v 0.00368415271 0.050534004 0.0192347438
v -0.00589674457 0.0497810844 0.0346653183
v -0.00638854057 0.0378677659 0.0188316295
v 0.00402843091 0.0382312193 0.019616031
f 1 2 3
f 5 2 1
f 6 5 4
f 6 2 5
f 7 1 3
f 7 3 4
f 7 5 1
f 7 4 5
f 8 3 2
f 9 4 3
f 10 8 2
f 10 2 6
f 11 4 9
f 11 9 3
f 11 3 6
f 12 10 6
f 12 6 3
f 12 3 10
f 13 8 10
f 14 11 6
f 14 6 4
f 14 4 11
f 15 13 10
f 15 10 3
f 15 3 8
f 15 8 13
f 16 17 18
f 16 18 19
f 22 16 19
f 23 21 20
f 24 21 23
f 25 22 19
f 28 18 17
f 28 24 23
f 28 17 24
f 28 19 18
f 29 24 17
f 29 17 16
f 30 21 24
f 30 26 21
f 32 31 20
f 32 26 22
f 32 22 25
f 32 25 31
f 34 28 23
f 34 27 28
f 34 33 27
f 34 23 33
f 35 28 27
f 35 19 28
f 35 27 33
f 35 25 19
f 36 29 16
f 36 16 22
f 36 24 29
f 38 23 20
f 38 20 31
f 39 32 20
f 39 20 21
f 40 21 26
f 40 26 32
f 40 39 21
f 40 32 39
f 41 35 33
f 41 25 35
f 42 37 30
f 42 30 24
f 42 24 36
f 42 36 22
f 42 22 37
f 43 37 22
f 43 22 26
f 43 26 30
f 43 30 37
f 44 33 23
f 44 23 38
f 44 41 33
f 45 38 31
f 45 31 25
f 45 25 41
f 45 44 38
f 45 41 44
f 51 49 48
f 51 46 47
f 51 48 46
f 52 46 48
f 52 48 49
f 52 50 46
f 53 46 50
f 53 51 47
f 53 50 51
f 54 49 51
f 54 52 49
f 54 50 52
f 55 53 47
f 55 47 46
f 55 46 53
f 56 54 51
f 56 51 50
f 56 50 54
f 57 58 59
f 61 59 58
f 62 57 59
f 63 61 58
f 63 58 57
f 64 60 61
f 65 61 60
f 65 59 61
f 65 62 59
f 65 60 62
f 66 62 60
f 66 57 62
f 67 66 60
f 67 60 64
f 68 63 57
f 68 57 66
f 68 66 67
f 68 67 61
f 70 68 61
f 70 61 63
f 70 63 68
f 71 67 64
f 71 64 61
f 71 61 69
f 72 69 61
f 72 61 67
f 72 71 69
f 72 67 71
f 73 75 76
f 81 75 73
f 82 79 77
f 83 73 76
f 83 79 82
f 83 81 73
f 84 76 75
f 84 83 76
f 84 79 83
f 86 80 78
f 86 74 80
f 86 78 82
f 87 78 80
f 87 81 78
f 87 75 81
f 88 82 78
f 88 78 81
f 89 83 82
f 89 81 83
f 89 88 81
f 89 82 88
f 90 80 74
f 91 85 90
f 94 91 82
f 94 82 77
f 94 77 93
f 94 85 91
f 94 93 90
f 94 90 85
f 95 82 91
f 96 92 84
f 96 84 75
f 96 75 87
f 96 87 92
f 97 79 84
f 97 84 92
f 97 77 79
f 97 93 77
f 97 92 87
f 97 87 93
f 98 93 87
f 98 87 80
f 98 80 90
f 98 90 93
f 99 86 82
f 99 82 95
f 100 99 95
f 100 95 91
f 100 91 90
f 101 100 86
f 101 86 99
f 101 99 100
f 102 100 90
f 102 90 74
f 102 74 86
f 102 86 100
f 103 104 105
f 107 104 103
f 107 103 105
f 109 107 105
f 109 106 107
f 110 104 108
f 112 106 109
f 113 105 104
f 113 104 110
f 114 109 105
f 114 105 110
f 114 110 108
f 115 111 107
f 116 108 104
f 117 104 107
f 117 107 111
f 117 116 104
f 117 111 116
f 118 112 109
f 118 114 108
f 118 109 114
f 119 106 112
f 119 108 116
f 120 113 110
f 120 110 105
f 120 105 113
f 121 115 107
f 121 107 106
f 122 119 116
f 122 106 119
f 123 118 108
f 123 108 119
f 123 119 112
f 123 112 118
f 124 116 111
f 125 115 121
f 126 121 106
f 126 106 122
f 126 122 116
f 127 116 124
f 127 126 116
f 127 121 126
f 128 127 124
f 128 124 111
f 128 125 121
f 128 121 127
f 129 128 111
f 129 125 128
f 129 111 115
f 129 115 125
f 132 131 133
f 135 132 133
f 135 133 130
f 136 134 130
f 136 130 133
f 136 133 134
f 137 134 133
f 137 133 131
f 137 131 134
f 138 131 132
f 138 132 135
f 139 134 131
f 140 130 134
f 140 134 139
f 141 139 131
f 141 131 138
f 141 140 139
f 142 135 130
f 142 130 140
f 142 140 138
f 142 138 135
f 143 141 138
f 143 138 140
f 143 140 141
f 149 146 147
f 150 144 145
f 150 145 146
f 150 146 149
f 151 146 145
f 152 147 146
f 152 151 148
f 152 146 151
f 154 151 145
f 154 145 144
f 158 154 144
f 161 149 147
f 163 150 149
f 163 149 157
f 164 157 149
f 165 158 144
f 165 144 150
f 166 158 151
f 166 151 154
f 166 154 158
f 167 159 155
f 168 155 160
f 168 167 155
f 169 161 156
f 169 149 161
f 169 164 149
f 169 156 164
f 170 161 147
f 170 147 152
f 170 156 161
f 171 152 148
f 171 148 162
f 172 160 164
f 173 150 163
f 174 160 155
f 174 173 163
f 175 153 160
f 175 174 163
f 175 160 174
f 175 163 157
f 175 157 153
f 176 153 157
f 176 157 164
f 176 164 160
f 176 160 153
f 177 165 150
f 177 150 173
f 178 167 148
f 178 148 151
f 178 159 167
f 179 148 167
f 179 167 168
f 180 170 152
f 180 152 171
f 181 156 170
f 181 180 171
f 181 170 180
f 182 172 162
f 182 162 148
f 182 148 179
f 182 179 168
f 182 168 160
f 182 160 172
f 183 164 156
f 183 156 181
f 184 174 155
f 184 155 159
f 184 159 177
f 184 177 173
f 184 173 174
f 185 177 159
f 185 151 158
f 185 158 165
f 185 165 177
f 185 178 151
f 185 159 178
f 186 181 171
f 186 171 162
f 186 162 181
f 187 172 164
f 187 164 183
f 187 162 172
f 187 183 181
f 187 181 162
f 193 190 191
f 193 191 188
f 193 188 189
f 193 189 190
f 194 189 188
f 195 191 192
f 196 194 188
f 197 190 189
f 197 189 194
f 197 191 190
f 197 194 192
f 197 192 191
f 198 188 191
f 198 191 195
f 199 192 194
f 199 194 196
f 199 196 198
f 200 198 196
f 200 196 188
f 200 188 198
f 201 198 195
f 201 195 192
f 201 199 198
f 201 192 199
f 202 203 204
f 207 202 204
f 207 204 205
f 207 203 202
f 209 206 203
f 209 203 207
f 212 205 204
f 212 204 208
f 213 208 204
f 214 213 210
f 214 203 213
f 215 211 203
f 215 203 206
f 215 206 209
f 217 213 204
f 217 214 210
f 217 204 203
f 217 203 214
f 218 208 213
f 218 213 203
f 218 203 211
f 220 207 205
f 220 205 212
f 221 217 210
f 221 210 213
f 221 213 217
f 222 219 216
f 224 215 209
f 224 209 219
f 225 219 209
f 225 209 207
f 226 207 220
f 227 218 211
f 227 211 222
f 228 222 211
f 228 211 215
f 228 219 222
f 228 224 219
f 228 215 224
f 229 223 212
f 229 212 208
f 229 208 218
f 229 218 223
f 230 220 212
f 230 212 223
f 230 226 220
f 231 216 219
f 231 219 225
f 231 226 216
f 231 225 207
f 231 207 226
f 232 223 218
f 232 218 227
f 232 230 223
f 232 227 222
f 233 216 226
f 233 226 230
f 233 230 232
f 233 232 222
f 233 222 216
f 234 235 236
f 238 235 234
f 239 234 236
f 239 236 237
f 240 238 234
f 240 239 237
f 240 234 239
f 241 235 238
f 241 237 236
f 241 240 237
f 241 238 240
f 242 241 236
f 242 236 235
f 242 235 241
