# Generated by scripts/generate_banana_vhacd.py; do not edit manually.
v 0.0127660489 0.0706539843 0.031143208
v 0.0132011209 0.0602876449 0.0280300348
v 0.0135227904 0.0693869525 0.00208177524
v 0.00620518124 0.060542232 0.000525392016
v -0.0103165232 0.0596177325 0.0241237331
v 0.012805835 0.0604127887 -9.6523625e-05
v 0.0132878919 0.0759954776 0.0269362033
v -0.00918811125 0.0593208693 0.0269897985
v -0.00774180639 0.0622464733 0.0136146966
v 0.0129195815 0.0658275483 0.000537929844
v 0.0131273441 0.0733896709 0.0297865898
v -0.00119618234 0.0687358631 0.0236952287
v 0.00174467484 0.0598087694 0.00173877414
v 0.00628945315 0.0699787902 0.030515923
v -0.00799171669 0.0618724967 0.0247738106
v -0.00995167338 0.0608155601 0.0152018384
v 0.0118931982 0.077428561 0.0134548142
v -0.0104923843 0.0597918841 0.0145567184
v 0.00394379455 0.0706372996 0.0104475189
v 0.00627067217 0.061795252 0.000784928681
v 0.000554098022 0.0687468991 0.026716565
v 0.00979969108 0.0725728673 0.0295846015
v -0.00954358179 0.0606102619 0.0238653783
v 0.00874454857 0.0756402728 0.0222119957
v 0.0134085451 0.0779681106 0.0130371908
v 0.00215601875 0.0722642806 0.0160674164
v -0.00865809601 0.0598922843 0.0119058074
v 0.00519150563 0.0639232043 0.00226426655
v 0.011306072 0.065465258 0.000721917473
v -0.00800355084 0.0606539382 0.026890249
v 0.00709361004 0.0721384705 0.0284558887
v 0.000413948402 0.0704920784 0.0220666081
v 0.0115223593 0.0755249055 0.0103211162
v 0.0132705959 0.0780383688 0.0207720722
v 0.0118559383 0.077447759 0.0207238011
v 0.000369068572 0.0707195865 0.0149042693
v -0.0027554269 0.0670625999 0.0132121995
v 0.00754097696 0.0691586563 0.00564109244
v 0.00188355499 0.0608839135 0.00227564806
v 0.00670931518 0.0708808314 0.0298624623
v 0.0101193647 0.0739051921 0.0281493015
v 0.00714113044 0.0737925103 0.0251829791
v 0.00211653021 0.0722303358 0.0190309336
v 0.0133086623 0.0764743103 0.0102700055
v 0.0104094216 0.0754565982 0.025348896
v 0.00530238141 0.0736360928 0.0134413273
v -0.00791977687 0.0607154108 0.0118879974
v 0.00568465529 0.0705138551 0.00866105652
v 0.0122508437 0.0690717752 0.00246987501
v 0.00544764108 0.072134554 0.0266523473
v 0.00550675454 0.0737733133 0.0221561402
v 0.0118027978 0.0754087698 0.0269396829
v 0.0105204413 0.0738757528 0.00892081358
v 0.0281888358 0.0706207503 0.0277701388
v 0.0271767872 0.0559502929 0.026876874
v 0.0285583097 0.0706137646 0.0090280352
v 0.0131630571 0.0707121244 0.00922678877
v 0.0125049721 0.0708453617 0.027867065
v 0.0279837514 0.0552949704 0.0093316592
v 0.0135021859 0.0551486619 0.0281584772
v 0.013165915 0.0555026387 0.00989829489
v 0.0279069073 0.0638399393 0.0287982502
v 0.0391859079 0.0645938149 0.0187980726
v 0.0398638614 0.0648566531 0.00138630772
v 0.0281950013 0.0638865656 0.000553766481
v 0.0279144423 0.0558701852 0.0031078214
v 0.0372655297 0.0645971293 0.0218537419
v 0.0272179628 0.0594360249 0.0287325282
v 0.0394104635 0.0584720969 0.0101330098
v 0.0281153407 0.0571549105 0.00246048273
v 0.0271767872 0.0559502929 0.026876874
v 0.0306150219 0.0637780171 0.027611988
v 0.039571125 0.0599984336 0.00422712808
v 0.0398152714 0.0630988644 0.0022874676
v 0.0352417822 0.0565413073 0.0162948138
v 0.0315882313 0.0612713615 0.0259889067
v 0.0373262764 0.0570461634 0.0101524831
v 0.0380677161 0.0613867746 0.00261481938
v 0.0389602452 0.0598276598 0.0150532547
v 0.0332402009 0.0615832848 0.0245402899
v 0.0284114318 0.059639873 0.0278584969
v 0.0303194057 0.0627140547 0.0276534152
v 0.0325933154 0.0568427086 0.00398309103
v 0.0370108367 0.0568969847 0.0119964358
v 0.0332031138 0.0565423058 0.0198914948
v 0.0297784345 0.0565715267 0.0245087018
v 0.0368114622 0.0632799649 0.0213084005
v 0.0281771041 0.056410357 0.0261668829
v 0.0398518617 0.0712612492 0.00946333492
v 0.0407200848 0.0634806808 0.00873269882
v 0.0403427386 0.0703253048 0.000440864364
v 0.0129271277 0.0636573204 0.000156779755
v 0.0127212192 0.0637690917 0.00884914379
v 0.0398638614 0.0648566531 0.00138630772
v 0.0131630571 0.0707121244 0.00922678877
v 0.0403384822 0.0686290784 0.000689914797
v 0.0296413696 0.0642479938 0.000708421657
v 0.0198739455 0.0700546412 0.000741783075
v 0.0129968522 0.0665839029 0.00074230653
v 0.0135227904 0.0693869525 0.00208177524
v 0.0399292303 0.0708381425 0.0178133605
v 0.0396764628 0.0641937792 0.0172782139
v 0.0407200848 0.0634806808 0.00873269882
v 0.0285583097 0.0706137646 0.0090280352
v 0.0282781035 0.0638393169 0.0176361051
v 0.0398518617 0.0712612492 0.00946333492
v 0.0281401179 0.070742104 0.0176136546
v 0.0281254742 0.0640679771 0.00931908365
v 0.0281391972 0.0688680482 0.0174516534
v 0.021326595 0.0706960909 0.0296788121
v 0.0351249184 0.0707293136 0.0178207517
v 0.0250793904 0.0808654541 0.0101052232
v 0.0149775511 0.0697565736 0.00177108743
v 0.0275971377 0.0704019251 0.0280466514
v 0.035246756 0.0702056456 0.000948296898
v 0.0131693671 0.0765200147 0.0257118945
v 0.0347646077 0.0803549279 0.0174647395
v 0.0249352279 0.0743806084 0.00220233767
v 0.0133287236 0.0774476029 0.0119153696
v 0.0120477471 0.0709004282 0.0258537815
v 0.0217129687 0.0806280209 0.0206902648
v 0.0264011033 0.0782155654 0.0257931956
v 0.0349380644 0.0793972445 0.00685927488
v 0.016924 0.077255 0.008789
v 0.0128419489 0.0699658278 0.00300415536
v 0.0337175156 0.0808219231 0.0169327602
v 0.015322671 0.0790552679 0.0190803921
v 0.0243133801 0.0751330012 0.0278054227
v 0.0275217792 0.0738638668 0.0271606544
v 0.021835 0.079204 0.025218
v 0.0252950053 0.0790601677 0.00718861077
v 0.0348900756 0.0744848501 0.00183959961
v 0.0154525206 0.0723926269 0.00400388052
v 0.0170996414 0.0789282012 0.0114540007
v 0.0136160042 0.0755129801 0.00873674463
v 0.027925 0.080818 0.021441
v 0.0330782128 0.0809234294 0.00928608264
v 0.013492209 0.0773829244 0.0238247242
v 0.0203537739 0.080541698 0.0126832028
v 0.0211904107 0.0753550589 0.0283819733
v 0.0276970911 0.0794380403 0.0242892964
v 0.022040276 0.0791272761 0.00853265467
v 0.0153949808 0.0706359179 0.00226740173
v 0.0133380346 0.0711939221 0.0039414958
v 0.0347475222 0.0808122858 0.0107692518
v 0.0168599244 0.0789988976 0.0222179692
v 0.0184527003 0.0790233187 0.0236939916
v 0.0201610564 0.0805620803 0.0190067081
v 0.0219676113 0.0806326594 0.0113804856
v 0.0154041253 0.0788579792 0.0131007917
v 0.0216679945 0.0779874608 0.0268367451
v 0.0237446021 0.0771929817 0.00539259099
v 0.0346235805 0.0807546446 0.0156740933
v 0.015058276 0.077420946 0.0251816049
v 0.0235713128 0.0758544882 0.0040429471
v 0.0275971377 0.0704019251 0.0280466514
v 0.0395991069 0.0678120679 0.0226131229
v 0.0338996475 0.0792317295 0.0211017429
v 0.0281872568 0.0812694946 0.0176204816
v 0.0282781035 0.0638393169 0.0176361051
v 0.0396864388 0.077299198 0.0169619598
v 0.0276612844 0.0783053431 0.0253318294
v 0.0279069073 0.0638399393 0.0287982502
v 0.0368688695 0.0748906393 0.0212141396
v 0.0337175156 0.0808219231 0.0169327602
v 0.0396764628 0.0641937792 0.0172782139
v 0.027925 0.080818 0.021441
v 0.0295397544 0.075238897 0.0259471668
v 0.0289686939 0.0703472101 0.027508342
v 0.0388301137 0.0769962628 0.0180156238
v 0.0328869606 0.0806442739 0.0188228756
v 0.029292095 0.0636253571 0.0282548769
v 0.027820885 0.0798725153 0.023674936
v 0.0296203552 0.0808168873 0.0205252241
v 0.0277047653 0.0754519319 0.0266422008
v 0.0325126249 0.0761134889 0.0240126866
v 0.0385629251 0.0750829107 0.019410719
v 0.0366426606 0.0645773863 0.0227069643
v 0.028909 0.07951 0.02369
v 0.0292137407 0.0782796411 0.0246686627
v 0.0385762566 0.0645555057 0.0198478925
v 0.0351151089 0.0647629817 0.0245083738
v 0.0399292557 0.067891634 0.0224510295
v 0.0533955558 0.0711370237 0.0158394717
v 0.039761764 0.0794280066 0.0144102736
v 0.0403427386 0.0703253048 0.000440864364
v 0.039635148 0.0599977648 0.0042478025
v 0.054316687 0.0797947878 0.00350358128
v 0.0392205909 0.0783452325 0.0167837648
v 0.0392977942 0.0597542209 0.0137343268
v 0.0399126924 0.0793585946 0.0075208701
v 0.0536804495 0.0717018214 0.000423565078
v 0.0518118381 0.076037912 0.0142354695
v 0.0536196187 0.0663403839 0.00544598182
v 0.0404034959 0.0762396072 0.00361772187
v 0.0398638614 0.0648566531 0.00138630772
v 0.0541135845 0.0739429732 0.000436236579
v 0.0397671292 0.0733936513 0.0197288264
v 0.0537358587 0.0793955903 0.0110700549
v 0.0515447138 0.0653337835 0.00469549827
v 0.0538462544 0.067987434 0.00251010135
v 0.040183971 0.0778110744 0.00523201147
v 0.0543098692 0.0780747425 0.00209596936
v 0.0403384822 0.0686290784 0.000689914797
v 0.0532178266 0.0782826918 0.0122042091
v 0.0347907117 0.0780514566 0.0209442386
v 0.0399292303 0.0708381425 0.0178133605
v 0.0401322534 0.0790598658 0.00667977511
v 0.0348900756 0.0744848501 0.00183959961
v 0.0351249184 0.0707293136 0.0178207517
v 0.04036352 0.0703562404 0.000538509737
v 0.0349380644 0.0793972445 0.00685927488
v 0.039761764 0.0794280066 0.0144102736
v 0.0344335657 0.0796072509 0.0202330186
v 0.039994 0.074734 0.002488
v 0.035246756 0.0702056456 0.000948296898
v 0.0388301137 0.0769962628 0.0180156238
v 0.0372547984 0.0767631883 0.0198063734
v 0.0385958301 0.0781411318 0.0177325775
v 0.0368568948 0.0783685382 0.0193421262
v 0.0371049857 0.0793424595 0.0180484452
v 0.0356347751 0.0792231948 0.0197590012
v 0.0537252763 0.0712158423 0.0156761393
v 0.0647976349 0.073798981 0.0109634655
v 0.0537358587 0.0793955903 0.0110700549
v 0.0540255091 0.0755728189 0.000716901823
v 0.0536115051 0.0662597986 0.00477319159
v 0.064091 0.081377 0.004517
v 0.063942 0.079408 0.010721
v 0.0643563445 0.07257926 0.0099391558
v 0.0534980842 0.073942362 0.0142610769
v 0.0536804495 0.0717018214 0.000423565078
v 0.054316687 0.0797947878 0.00350358128
v 0.0621333914 0.0753087795 0.0122905419
v 0.0641074816 0.0807852221 0.00855540786
v 0.0536196187 0.0663403839 0.00544598182
v 0.0641836864 0.0718448289 0.00143923148
v 0.063611 0.078059 0.000681
v 0.0592492866 0.080988217 0.00716385901
v 0.0645833127 0.0786300658 0.0109111437
v 0.0621751187 0.0747889306 0.0122703508
v 0.063770483 0.0710415219 0.00661327653
v 0.0640892691 0.0785171514 0.00161645254
v 0.0635872094 0.0709376595 0.00182860509
v 0.0635712188 0.0810054588 0.00334472216
v 0.0543098692 0.0780747425 0.00209596936
v 0.0634626557 0.0729399983 0.000313778528
v 0.0551164144 0.0723224503 0.000294314925
v 0.0590633098 0.0808652597 0.00548590323
v 0.0645371743 0.0798792108 0.00976953497
v 0.0600480143 0.0691969838 0.00578106782
v 0.0577711284 0.0794815357 0.00246264948
v 0.06023 0.080683 0.003333
v 0.061604372 0.077885689 0.000778919227
v 0.0644035833 0.0809547271 0.00720737144
v 0.056466101 0.0675387854 0.0048804995
f 6 3 2
f 7 2 3
f 8 2 1
f 10 6 4
f 10 3 6
f 11 1 2
f 11 2 7
f 13 6 2
f 13 2 8
f 13 4 6
f 14 8 1
f 14 1 11
f 15 5 8
f 18 13 8
f 18 8 5
f 18 5 16
f 18 16 9
f 20 4 13
f 21 12 15
f 22 14 11
f 22 11 7
f 23 15 12
f 23 16 5
f 23 5 15
f 25 7 3
f 27 18 9
f 27 13 18
f 28 20 13
f 29 10 4
f 29 4 20
f 29 3 10
f 29 28 3
f 29 20 28
f 30 8 14
f 30 14 21
f 30 21 15
f 30 15 8
f 32 23 12
f 32 16 23
f 32 12 21
f 34 7 25
f 34 25 17
f 35 17 26
f 35 34 17
f 36 16 32
f 37 36 19
f 37 9 16
f 37 16 36
f 39 28 13
f 39 13 27
f 39 37 19
f 39 19 28
f 40 31 21
f 40 21 14
f 40 14 22
f 41 22 7
f 41 40 22
f 41 31 40
f 43 36 32
f 43 26 36
f 43 35 26
f 43 24 35
f 44 33 17
f 44 17 25
f 44 25 3
f 45 7 34
f 45 24 42
f 45 42 31
f 45 35 24
f 45 34 35
f 46 36 26
f 46 26 17
f 46 17 33
f 46 33 19
f 46 19 36
f 47 27 9
f 47 9 37
f 47 39 27
f 47 37 39
f 48 38 28
f 48 28 19
f 49 3 28
f 49 28 38
f 50 21 31
f 50 31 42
f 50 42 32
f 50 32 21
f 51 42 24
f 51 32 42
f 51 43 32
f 51 24 43
f 52 41 7
f 52 7 45
f 52 45 31
f 52 31 41
f 53 38 48
f 53 49 38
f 53 33 44
f 53 44 3
f 53 3 49
f 53 48 19
f 53 19 33
f 58 54 56
f 58 56 57
f 59 57 56
f 59 54 55
f 59 56 54
f 60 55 54
f 60 54 58
f 60 59 55
f 61 60 58
f 61 58 57
f 61 57 59
f 61 59 60
f 62 64 65
f 67 63 64
f 67 64 62
f 68 62 65
f 70 66 65
f 70 65 64
f 71 68 65
f 71 65 66
f 72 67 62
f 74 64 63
f 74 63 69
f 74 69 73
f 75 71 66
f 77 73 69
f 78 74 73
f 78 66 70
f 78 70 64
f 78 64 74
f 79 75 69
f 79 69 63
f 79 63 67
f 80 76 71
f 80 67 76
f 81 68 71
f 81 71 76
f 82 81 76
f 82 68 81
f 82 72 62
f 82 62 68
f 82 76 67
f 82 67 72
f 83 77 66
f 83 73 77
f 83 78 73
f 83 66 78
f 84 75 66
f 84 66 77
f 84 77 69
f 84 69 75
f 85 71 75
f 85 75 79
f 86 85 80
f 86 71 85
f 87 85 79
f 87 79 67
f 87 67 80
f 87 80 85
f 88 86 80
f 88 80 71
f 88 71 86
f 89 90 91
f 93 90 89
f 93 92 90
f 95 93 89
f 96 91 90
f 96 90 94
f 97 94 90
f 97 90 92
f 97 96 94
f 97 92 91
f 97 91 96
f 98 95 89
f 98 89 91
f 98 91 92
f 99 92 93
f 99 93 95
f 99 98 92
f 100 99 95
f 100 95 98
f 100 98 99
f 101 102 103
f 105 102 101
f 105 103 102
f 106 101 103
f 106 103 104
f 107 105 101
f 107 106 104
f 107 101 106
f 108 104 103
f 108 103 105
f 108 107 104
f 109 108 105
f 109 105 107
f 109 107 108
f 114 110 113
f 115 114 113
f 115 111 114
f 117 114 111
f 118 115 113
f 120 113 110
f 120 110 116
f 120 116 119
f 123 117 111
f 123 111 115
f 125 120 119
f 125 113 120
f 128 110 114
f 129 114 117
f 129 128 114
f 129 122 128
f 131 123 118
f 132 123 115
f 132 115 118
f 132 118 123
f 134 124 119
f 135 125 119
f 135 119 124
f 135 124 133
f 136 112 121
f 136 121 130
f 136 117 126
f 137 136 126
f 137 112 136
f 137 131 112
f 137 123 131
f 138 127 119
f 138 119 116
f 140 116 110
f 140 110 128
f 140 128 122
f 141 129 117
f 141 122 129
f 141 117 136
f 141 136 130
f 142 112 131
f 142 124 134
f 143 118 113
f 143 113 125
f 144 135 133
f 144 125 135
f 144 143 125
f 144 133 143
f 145 137 126
f 145 117 123
f 145 123 137
f 146 127 138
f 147 146 138
f 147 130 121
f 147 121 146
f 148 139 127
f 148 121 112
f 148 112 139
f 148 146 121
f 148 127 146
f 149 139 112
f 149 134 139
f 149 142 134
f 149 112 142
f 150 139 134
f 150 134 119
f 150 119 127
f 150 127 139
f 151 116 140
f 151 140 122
f 151 141 130
f 151 122 141
f 152 133 124
f 152 124 142
f 152 142 131
f 152 131 118
f 153 145 126
f 153 126 117
f 153 117 145
f 154 147 138
f 154 138 116
f 154 130 147
f 154 151 130
f 154 116 151
f 155 143 133
f 155 133 152
f 155 152 118
f 155 118 143
f 162 160 156
f 162 159 160
f 163 156 160
f 165 160 159
f 166 161 157
f 166 165 161
f 166 160 165
f 167 159 162
f 169 156 163
f 169 157 168
f 170 161 158
f 170 158 164
f 171 158 161
f 171 161 165
f 172 163 160
f 172 160 166
f 172 169 163
f 172 157 169
f 173 167 162
f 173 158 171
f 174 165 159
f 174 159 167
f 174 171 165
f 174 173 171
f 174 167 173
f 175 168 162
f 175 162 156
f 175 169 168
f 175 156 169
f 176 168 157
f 176 157 164
f 176 164 158
f 177 170 164
f 177 164 157
f 177 157 161
f 177 161 170
f 178 172 166
f 179 173 162
f 179 158 173
f 180 176 158
f 180 162 168
f 180 168 176
f 180 179 162
f 180 158 179
f 181 178 166
f 181 166 157
f 181 157 178
f 182 178 157
f 182 157 172
f 182 172 178
f 190 184 183
f 190 189 187
f 190 183 189
f 191 185 188
f 191 189 185
f 193 183 184
f 194 184 190
f 196 191 186
f 196 187 189
f 196 189 191
f 197 192 186
f 198 193 189
f 198 189 183
f 198 183 193
f 199 184 188
f 199 188 185
f 199 185 189
f 200 194 190
f 200 190 187
f 201 184 194
f 201 192 197
f 201 194 200
f 201 200 187
f 201 196 192
f 201 187 196
f 202 191 188
f 202 188 195
f 202 195 186
f 202 186 191
f 203 195 188
f 203 186 195
f 203 197 186
f 203 201 197
f 203 188 184
f 203 184 201
f 204 196 186
f 204 186 192
f 204 192 196
f 205 193 184
f 205 184 199
f 205 199 189
f 205 189 193
f 210 207 206
f 211 208 207
f 212 208 209
f 213 207 208
f 213 208 212
f 214 210 206
f 214 209 210
f 214 212 209
f 214 213 212
f 215 211 209
f 215 209 208
f 215 208 211
f 216 210 209
f 216 209 211
f 216 211 207
f 216 207 210
f 217 207 213
f 218 206 207
f 218 207 217
f 219 217 213
f 219 218 217
f 220 206 218
f 220 218 219
f 221 219 213
f 221 213 214
f 222 214 206
f 222 206 220
f 222 221 214
f 222 220 219
f 222 219 221
f 230 224 223
f 231 229 225
f 231 223 229
f 232 225 226
f 232 231 225
f 232 227 231
f 233 226 225
f 235 225 229
f 236 230 223
f 236 231 227
f 236 223 231
f 237 224 230
f 239 233 225
f 239 235 228
f 239 225 235
f 240 229 223
f 240 223 234
f 240 234 224
f 241 234 223
f 241 223 224
f 241 224 234
f 242 230 236
f 242 237 230
f 243 224 237
f 243 237 238
f 244 227 232
f 244 237 242
f 245 243 238
f 245 228 243
f 246 226 233
f 247 238 237
f 247 244 232
f 247 237 244
f 248 232 226
f 248 226 238
f 248 247 232
f 248 238 247
f 249 239 228
f 249 233 239
f 250 235 229
f 250 229 240
f 250 240 224
f 251 242 236
f 251 236 227
f 251 244 242
f 252 246 233
f 253 228 245
f 253 249 228
f 253 233 249
f 253 252 233
f 253 245 238
f 253 238 252
f 254 238 226
f 254 226 246
f 254 252 238
f 254 246 252
f 255 228 235
f 255 235 250
f 255 243 228
f 255 250 224
f 255 224 243
f 256 251 227
f 256 227 244
f 256 244 251
