# Generated by scripts/generate_banana_vhacd.py; do not edit manually.
v -0.0208244386 -0.00657143411 0.0312939862
v -0.0211428014 -0.0145989443 0.0299754854
v -0.0210742751 -0.0160165994 0.00935754506
v -0.038462987 -0.00686201291 0.0117514506
v -0.0389208218 -0.0150914979 0.0273407964
v -0.021052662 -0.00873146929 0.0114161675
v -0.0318165264 -0.0150443391 0.0296372063
v -0.0378278473 -0.00644437774 0.0271900896
v -0.0397910899 -0.0152271995 0.0115574065
v -0.0405046665 -0.0152818439 0.0238561001
v -0.0403215426 -0.00644528157 0.0164958123
v -0.0317280121 -0.0064159925 0.0300492205
v -0.0405135592 -0.0153063652 0.0131090851
v -0.0387194927 -0.00679063255 0.0254846766
v -0.0402345466 -0.00851378801 0.0148986945
v -0.0398322751 -0.0105679027 0.0240962572
v -0.0383259796 -0.00850477322 0.0267994422
v -0.040211151 -0.00684260598 0.0207807859
v -0.0402210662 -0.013638999 0.0129888357
v -0.021052662 -0.00873146929 0.0114161675
v -0.0210742751 -0.0160165994 0.00935754506
v -0.0215823091 -0.0064796884 0.000665570514
v -0.0281149701 -0.00643998645 0.000629109635
v -0.0310280246 -0.0150146691 0.0105805991
v -0.0238596942 -0.0149761438 0.000543783384
v -0.0318375818 -0.00644496486 0.0108360394
v -0.0216078874 -0.0150646664 0.000790652975
v -0.023381788 -0.00647968855 0.000448999255
v -0.0315267797 -0.0151236937 0.00104755214
v -0.0301704878 -0.0148461435 0.000554216202
v -0.0309290636 -0.00669720819 0.00187792511
v -0.0318620831 -0.0150317532 0.00564091451
v -0.0296988199 -0.0117502414 0.0006338017
v -0.00972759029 -0.00640167207 0.032778001
v -0.00656586432 -0.0269048432 0.0236061636
v -0.00535982359 -0.00625638116 0.0293346997
v -0.0100432703 -0.00631083815 0.00463192558
v -0.0108174457 -0.0235526681 0.0310679176
v -0.00602555517 -0.00619346986 0.00591223658
v -0.00870744979 -0.00623765349 0.0320307515
v -0.0103932938 -0.0132416974 0.03255165
v -0.00882263123 -0.0275542417 0.010945212
v -0.00938534917 -0.0267362119 0.0288996733
v -0.0062074407 -0.0269833724 0.0117273255
v -0.0102517449 -0.0184656338 0.00516466139
v -0.0061124901 -0.0130013958 0.0282607703
v -0.00953777081 -0.0232693001 0.0298883185
v -0.00984505742 -0.0270214227 0.0292030249
v -0.0091681035 -0.018298354 0.00589224748
v -0.00790184957 -0.0180476418 0.00715975037
v -0.00938884851 -0.00640224808 0.0298442898
v -0.00947096252 -0.0150066618 0.0296002026
v -0.0100432703 -0.00631083815 0.00463192558
v -0.0215823091 -0.0064796884 0.000665570514
v -0.0208244386 -0.00657143411 0.0312939862
v -0.0104116413 -0.0151588013 0.00486837296
v -0.014868431 -0.00620980407 0.00241515567
v -0.0210742751 -0.0160165994 0.00935754506
v -0.0216078874 -0.0150646664 0.000790652975
v -0.0118100792 -0.00632757349 0.00364354273
v -0.0211428014 -0.0145989443 0.0299754854
v -0.0165923963 -0.0149502592 0.00211416723
v -0.0121513703 -0.01506379 0.00396310424
v -0.0154639854 -0.0133190031 0.00247183115
v -0.00121939236 0.00781469913 0.0190332485
v -0.00312616996 -0.00699372856 0.0201350966
v -0.00424526899 0.00726548054 0.00436165237
v -0.0273395764 0.00697984799 0.00182525628
v -0.0385943322 0.00169754272 0.019208004
v -0.023381788 -0.00647968855 0.000448999255
v -0.0121891888 0.00769452102 0.00182316456
v -0.0374099902 0.00701727148 0.0188162398
v -0.00602555517 -0.00619346986 0.00591223658
v -0.035557 -0.006234 0.007034
v -0.00661946566 0.0075216072 0.00389834561
v -0.0218534327 -0.00157613765 0.000527807589
v -0.014868431 -0.00620980407 0.00241515567
v -0.00573585538 -0.00436318615 0.00571962049
v -0.00651921516 -0.00622864754 0.00572881739
v -0.0309290636 -0.00669720819 0.00187792511
v -0.0333277017 0.00664414562 0.00862955865
v -0.0381150056 0.00203297034 0.0152060685
v -0.0404097782 -0.00680114761 0.0191654608
v -0.021784 -0.004752 0.000585
v -0.0265562784 -0.00138774182 0.000634122691
v -0.0105633937 -0.00626539477 0.00421579703
v -0.0314725481 -0.000154931084 0.00379209227
v -0.0368412779 0.00691852251 0.0149119173
v -0.040198146 -0.005379998 0.0174522184
v -0.038462987 -0.00686201291 0.0117514506
v -0.0279429606 -0.0048139863 0.000703597924
v -0.0303179956 -0.00170676992 0.00234332628
v -0.0300578622 0.00501436475 0.00383363641
v -0.0330387528 0.00291678085 0.00667560676
v -0.0401769257 -0.00540555681 0.0187564471
v -0.0404791528 -0.00678020619 0.0176146583
v -0.0382018978 -0.00521766023 0.0118837932
v -0.0281149701 -0.00643998645 0.000629109635
v -0.028835 0.00473 0.002502
v -0.0349286168 -0.00403969949 0.0068797218
v -0.0349966924 0.00482995347 0.0104201192
v -0.0129643316 0.0175396808 0.0362011608
v -0.0136455306 -0.00624197937 0.0351834334
v -0.0119922128 -0.00727943041 0.0152432777
v -0.0345107032 0.0169881856 0.0194722492
v -0.0325774305 -0.00665812085 0.0329414937
v -0.0137357657 0.0181639717 0.0200240648
v -0.0279424879 -0.00654775688 0.0345453736
v -0.0270986141 0.0173026501 0.0329440429
v -0.0403425451 -0.0065298302 0.0193565772
v -0.037288928 -0.00705544202 0.0282642312
v -0.0283950875 0.0172663317 0.0316529529
v -0.0243257331 0.0172702047 0.0343126738
v -0.0385943322 0.00169754272 0.019208004
v -0.0335130904 0.013312604 0.0262430761
v -0.0334060381 -7.17467101e-05 0.0314209936
v -0.0257996521 0.010787145 0.0344328364
v -0.0349772282 0.0155131817 0.0194196747
v -0.038486486 -0.00178357643 0.0237659672
v -0.0334686561 0.0169498756 0.0238787249
v -0.032581 -0.00147 0.032485
v -0.0317357552 0.00678557886 0.0314867074
v -0.027479292 -0.00154456138 0.0345742957
v -0.0302786293 0.00679044103 0.0328917957
v -0.0384092442 0.00173768793 0.0208089967
v -0.0387194927 -0.00679063255 0.0254846766
v -0.0347591277 0.00836777028 0.0266212883
v -0.0312525382 0.0155677338 0.0286227898
v -0.0348881892 0.0151777375 0.0206146361
v -0.036612987 -0.00340628358 0.0282945613
v -0.0366749889 0.00747331402 0.0224056511
v -0.0387280645 -0.00489109055 0.0247331722
v -0.0364586021 0.00669294882 0.0238407386
v -0.0315975417 0.011775695 0.0297890322
v -0.00428463741 0.00710461836 0.0294857162
v 0.000849220362 0.00783514803 0.0252401718
v -0.000827628714 0.00797675709 0.028279693
v -0.00424526899 0.00726548054 0.00436165237
v -0.00465748353 -0.0184747491 0.0159672223
v 0.000830757346 0.00811455026 0.0140463716
v -0.00385956098 0.00749098581 0.0044721067
v -0.00535982359 -0.00625638116 0.0293346997
v 0.000499307384 0.00471380031 0.0176486148
v -0.00272714705 0.00770545351 0.00638797785
v -0.00523920955 -0.00122544554 0.00538940977
v -0.00504100255 -0.0150834905 0.0243054343
v -0.00447606057 -0.00613398774 0.0279413188
v 0.000271028158 0.0045195544 0.0237768513
v -0.0045911139 -0.0182850702 0.0161532835
v -0.00471427628 0.00395035256 0.00473189092
v -0.000801090898 0.00776556091 0.00969349546
v -0.00503094835 -0.0140983226 0.012722026
v -0.00465565972 -0.0148705185 0.0234199367
v -0.00472926567 -0.0184458705 0.0176295059
v -0.00528050138 -0.00434262244 0.00747437826
v -0.00849133443 0.00770801212 0.0351355451
v -0.0020048333 0.0059078696 0.0288864798
v -0.0137565499 0.00878241403 0.0204364084
v -0.0119922128 -0.00727943041 0.0152432777
v -0.0136455306 -0.00624197937 0.0351834334
v -0.00121939236 0.00781469913 0.0190332485
v -0.00537274253 -0.00630898807 0.0293364116
v -0.0128689275 0.00748787938 0.0359648566
v -0.00223913918 0.0079031036 0.0300852985
v -0.00919976917 -0.00436205603 0.032861467
v -0.00312616996 -0.00699372856 0.0201350966
v -0.00184733622 0.00756012997 0.0294619911
v -0.00572777206 0.00765861579 0.0334236791
v -0.0123003552 -0.00618263791 0.0345163407
v 0.00562300852 0.0176715729 0.019353494
v 0.00453381968 0.0154289093 0.0186726118
v -0.00221779721 0.0178634253 0.00338052803
v -0.0198272039 0.0176273378 0.00050106465
v -0.0370185797 0.00851749041 0.0191851717
v -0.033358727 0.0177777123 0.0144047819
v 0.00327456108 0.0181032338 0.00868537846
v 0.00160536007 0.00752834413 0.0193987174
v -0.0345107032 0.0169881856 0.0194722492
v -0.0273395764 0.00697984799 0.00182525628
v 0.00444995398 0.0181567326 0.0129579119
v -0.00741334784 0.0181555899 0.00162829595
v -0.00421706482 0.00743285064 0.00434469517
v -0.0350354376 0.0149063794 0.0164137617
v 0.00238760869 0.00977921215 0.0195466623
v -0.0238702093 0.017279541 0.00171543573
v -0.0372964955 0.00666211301 0.0161686156
v 0.000543485102 0.00752865389 0.0137454308
v -0.0182203466 0.00901788102 0.000544620826
v 0.000603043148 0.0150102162 0.00661994352
v -0.0349772282 0.0155131817 0.0194196747
v -0.0299384398 0.0170629126 0.00847936041
v -0.0212166765 0.0156898207 0.00059538118
v -0.0374099902 0.00701727148 0.0188162398
v -0.0346927335 0.0116786081 0.0131713423
v 0.00281512529 0.0166052195 0.00900578819
v 0.00385237295 0.0150435208 0.0151848033
v -0.0149371215 0.0176344602 0.000532019049
v -0.0102695572 0.00760172908 0.00242255555
v -0.00274202762 0.014551409 0.00372907924
v -0.0280510758 0.0147190166 0.005022123
v -0.0212826449 0.0105693282 0.000474830054
v -0.036835633 0.00838764274 0.0161179996
v -0.0317164872 0.00704301681 0.00659487285
v -0.0013666076 0.00797562272 0.00788479845
v 0.00209642397 0.00980654502 0.0164866317
v -0.0146538685 0.0157757344 0.000559721245
v -0.0198983023 0.00896732547 0.000469257911
v -0.0251086072 0.015215128 0.00207929661
v -0.0356069187 0.0070514773 0.0124887478
v -0.0297358527 0.0093399874 0.00499149267
v -0.031425722 0.0134293066 0.00886637804
v -0.0270015791 0.0101789324 0.00236413108
v -0.0316605006 0.0083670977 0.00705738195
v -0.0348829728 0.00820799388 0.0117976512
v -0.00380587007 0.018006517 0.0348988779
v 0.00660266818 0.0183739892 0.0214480921
v 0.00285668724 0.0182800246 0.0288636399
v -0.0137357657 0.0181639717 0.0200240648
v 0.00160536007 0.00752834413 0.0193987174
v 0.00631339368 0.018419565 0.022198949
v -0.0128689275 0.00748787938 0.0359648566
v 0.00453381968 0.0154289093 0.0186726118
v 0.000849220362 0.00783514803 0.0252401718
v -0.0129643316 0.0175396808 0.0362011608
v -0.0137565499 0.00878241403 0.0204364084
v 0.00562300852 0.0176715729 0.019353494
v 0.002524 0.009955 0.022191
v 0.00374441027 0.0152243912 0.0250757727
v -0.00738312456 0.00771878113 0.0345365973
v -0.000827628714 0.00797675709 0.028279693
v -0.00242812944 0.0147307482 0.032990824
v -0.00395200309 0.016343908 0.0345384626
v 0.000637772356 0.015015902 0.0299606046
v -0.00440960938 0.0095291554 0.032911701
v -0.0125850712 0.029589324 0.0359323081
v -0.0129643316 0.0175396808 0.0362011608
v -0.0129832972 0.0175451611 0.00057538891
v -0.0159138511 0.0292740449 0.000591497358
v -0.0334686561 0.0169498756 0.0238787249
v -0.0129206219 0.0295496647 0.000400049459
v -0.0270986141 0.0173026501 0.0329440429
v -0.0296133051 0.028617418 0.0221415003
v -0.031554 0.016697 0.02764
v -0.0299384398 0.0170629126 0.00847936041
v -0.0198272039 0.0176273378 0.00050106465
v -0.0227723076 0.0174305488 0.0348012192
v -0.0295646697 0.0285736082 0.0150229324
v -0.019381 0.029405 0.034541
v -0.029960574 0.0253081746 0.0249272945
v -0.0238702093 0.017279541 0.00171543573
v -0.0149371215 0.0176344602 0.000532019049
v -0.0333809758 0.0185945047 0.0150606266
v -0.0222613055 0.0222048131 0.0345429489
v -0.0330064675 0.0184335542 0.0238189081
v -0.0261484485 0.0277261493 0.0297028605
v -0.0194643476 0.0207984004 0.000584786986
v -0.0246097002 0.0286188543 0.00725200923
v -0.0314002763 0.0224796091 0.0138132202
v -0.033358727 0.0177777123 0.0144047819
v -0.0315571653 0.0253828337 0.0193115453
v -0.0221744344 0.0290805943 0.0334236863
v -0.0316480625 0.0183212966 0.026570328
v -0.0266776818 0.0230166499 0.0313753458
v -0.0265417954 0.0287920576 0.0284971965
v -0.0179251231 0.025734021 0.00066134599
v -0.0200448465 0.0287733185 0.00239403632
v -0.0249778232 0.0203511781 0.00372219618
v -0.0297340956 0.0184619059 0.00879882684
v -0.0280493262 0.0285319773 0.012197325
v -0.0314059374 0.0252418159 0.0164756477
v -0.0332014844 0.0202655851 0.0206310821
v -0.0208929622 0.0275354658 0.0343394379
v -0.0235981368 0.0272666986 0.0329676257
v -0.0234599405 0.0204007312 0.00226948042
v -0.0231467986 0.0253205903 0.00391450721
v -0.03336337 0.0199370706 0.0163031526
v -0.0265850805 0.0187984197 0.0329817928
v -0.025001 0.023884 0.032889
f 1 2 3
f 6 1 3
f 6 3 4
f 6 4 1
f 7 2 1
f 7 3 2
f 9 4 3
f 10 7 5
f 10 3 7
f 11 1 4
f 12 7 1
f 12 11 8
f 12 1 11
f 12 8 5
f 12 5 7
f 13 9 3
f 13 3 10
f 13 10 11
f 15 13 11
f 15 11 4
f 16 10 5
f 16 5 14
f 17 14 5
f 17 5 8
f 17 8 14
f 18 14 8
f 18 8 11
f 18 16 14
f 18 11 10
f 18 10 16
f 19 15 4
f 19 4 9
f 19 9 13
f 19 13 15
f 20 21 22
f 24 21 20
f 26 20 22
f 26 22 23
f 26 24 20
f 27 22 21
f 28 23 22
f 28 27 25
f 28 22 27
f 29 27 21
f 29 25 27
f 30 28 25
f 30 23 28
f 30 25 29
f 31 29 26
f 31 26 23
f 32 24 26
f 32 26 29
f 32 29 21
f 32 21 24
f 33 30 29
f 33 23 30
f 33 31 23
f 33 29 31
f 40 37 34
f 40 39 37
f 40 36 39
f 41 34 37
f 41 37 38
f 41 40 34
f 41 38 36
f 41 36 40
f 44 39 36
f 44 36 35
f 44 35 42
f 45 42 38
f 45 38 37
f 45 37 39
f 45 44 42
f 46 43 35
f 46 35 36
f 46 36 43
f 47 43 36
f 47 36 38
f 47 38 43
f 48 42 35
f 48 35 43
f 48 43 38
f 48 38 42
f 49 45 39
f 49 44 45
f 50 49 39
f 50 39 44
f 50 44 49
f 51 52 53
f 55 52 51
f 56 53 52
f 57 55 51
f 57 51 53
f 57 54 55
f 58 56 52
f 59 54 57
f 59 56 58
f 60 57 53
f 60 53 56
f 61 58 52
f 61 52 55
f 61 59 58
f 61 55 54
f 61 54 59
f 62 59 57
f 63 56 59
f 63 59 62
f 63 60 56
f 64 62 57
f 64 57 60
f 64 63 62
f 64 60 63
f 65 66 67
f 72 71 68
f 72 65 71
f 72 69 66
f 72 66 65
f 75 71 65
f 75 65 67
f 75 67 71
f 76 68 71
f 77 71 67
f 78 67 66
f 78 66 73
f 78 77 67
f 78 73 77
f 79 73 66
f 79 66 70
f 79 77 73
f 80 70 66
f 83 66 69
f 84 76 71
f 84 70 76
f 84 77 70
f 84 71 77
f 85 76 70
f 85 68 76
f 86 79 70
f 86 70 77
f 86 77 79
f 87 80 74
f 88 72 68
f 88 68 81
f 88 82 72
f 89 69 72
f 89 72 82
f 90 80 66
f 90 66 83
f 90 74 80
f 90 89 82
f 91 80 68
f 91 68 85
f 92 68 80
f 92 80 87
f 93 81 68
f 94 93 87
f 94 81 93
f 95 83 69
f 95 69 89
f 96 90 83
f 96 89 90
f 96 95 89
f 96 83 95
f 97 90 82
f 97 82 88
f 97 74 90
f 98 91 85
f 98 85 70
f 98 70 80
f 98 80 91
f 99 92 87
f 99 68 92
f 99 93 68
f 99 87 93
f 100 94 87
f 100 87 74
f 101 97 88
f 101 88 81
f 101 81 94
f 101 94 100
f 101 100 74
f 101 74 97
f 102 103 104
f 107 102 104
f 107 104 105
f 108 103 102
f 108 104 103
f 109 102 107
f 111 108 106
f 111 104 108
f 111 110 104
f 112 109 107
f 112 107 105
f 113 102 109
f 114 104 110
f 117 102 113
f 118 105 104
f 118 104 114
f 120 112 105
f 121 116 111
f 121 111 106
f 122 109 112
f 123 108 102
f 123 102 117
f 123 117 106
f 123 106 108
f 124 117 113
f 124 113 109
f 124 109 122
f 124 122 116
f 124 116 121
f 124 121 106
f 124 106 117
f 125 114 110
f 125 110 119
f 125 118 114
f 126 110 111
f 128 120 115
f 128 112 120
f 128 115 127
f 129 120 105
f 129 105 118
f 130 111 116
f 130 116 122
f 130 122 127
f 130 126 111
f 131 125 119
f 131 120 129
f 131 129 118
f 131 118 125
f 132 119 110
f 132 110 126
f 132 126 130
f 132 130 127
f 132 127 119
f 133 127 115
f 133 115 120
f 133 120 131
f 133 131 119
f 133 119 127
f 134 122 112
f 134 112 128
f 134 128 127
f 134 127 122
f 140 137 136
f 141 135 137
f 141 138 135
f 142 137 135
f 143 140 136
f 144 141 137
f 144 137 140
f 145 142 135
f 147 136 137
f 147 137 142
f 147 146 136
f 147 142 146
f 148 143 136
f 149 139 140
f 149 140 143
f 149 143 148
f 150 145 135
f 150 135 138
f 150 138 141
f 150 141 145
f 151 145 141
f 151 141 144
f 151 144 140
f 151 140 139
f 152 151 139
f 152 145 151
f 152 146 142
f 153 148 136
f 153 136 146
f 154 139 149
f 154 152 139
f 154 146 152
f 154 153 146
f 154 149 148
f 154 148 153
f 155 152 142
f 155 142 145
f 155 145 152
f 160 158 159
f 161 159 158
f 163 160 156
f 163 156 158
f 163 158 160
f 164 161 158
f 164 158 156
f 166 162 160
f 166 160 159
f 166 159 161
f 166 161 157
f 166 157 162
f 167 157 161
f 167 161 164
f 167 164 162
f 167 162 157
f 168 164 156
f 168 162 164
f 168 165 162
f 169 160 162
f 169 162 165
f 169 165 168
f 169 168 156
f 169 156 160
f 178 170 175
f 180 175 170
f 181 176 172
f 181 173 175
f 181 180 176
f 181 175 180
f 182 181 172
f 183 178 175
f 184 177 170
f 184 170 178
f 184 178 174
f 184 174 177
f 185 175 173
f 186 182 177
f 186 179 182
f 187 177 182
f 189 172 176
f 190 183 174
f 190 174 178
f 190 178 183
f 191 175 185
f 192 185 173
f 192 179 185
f 193 186 177
f 193 177 174
f 194 183 175
f 194 175 191
f 195 176 180
f 196 180 170
f 196 195 180
f 196 187 195
f 197 173 181
f 198 182 179
f 198 188 181
f 198 181 182
f 199 189 182
f 199 182 172
f 199 172 189
f 200 191 185
f 201 179 192
f 201 192 173
f 202 186 193
f 202 183 194
f 202 193 174
f 202 174 183
f 203 179 186
f 204 195 187
f 204 187 182
f 204 182 189
f 204 189 176
f 204 176 195
f 205 196 170
f 205 170 177
f 205 177 187
f 205 187 196
f 206 197 181
f 206 181 188
f 207 198 179
f 207 188 198
f 207 179 201
f 207 206 188
f 207 197 206
f 207 201 173
f 207 173 197
f 208 200 185
f 208 185 179
f 209 202 194
f 209 186 202
f 209 203 186
f 210 179 203
f 211 194 191
f 211 191 200
f 212 208 179
f 212 179 210
f 212 210 200
f 212 200 208
f 213 211 200
f 213 210 203
f 213 200 210
f 214 209 194
f 214 194 211
f 214 211 213
f 214 213 203
f 214 203 209
f 215 217 218
f 220 216 218
f 220 218 217
f 222 216 219
f 223 216 220
f 224 221 215
f 224 215 218
f 225 219 221
f 225 222 219
f 225 218 222
f 225 224 218
f 225 221 224
f 226 222 218
f 226 218 216
f 226 216 222
f 227 223 219
f 227 219 216
f 227 216 223
f 228 223 220
f 228 220 217
f 228 217 223
f 229 221 219
f 229 219 223
f 229 215 221
f 230 229 223
f 230 223 217
f 231 217 215
f 232 231 215
f 232 215 229
f 232 229 231
f 233 230 217
f 233 217 231
f 234 231 229
f 234 229 230
f 234 233 231
f 234 230 233
f 235 236 237
f 240 235 237
f 243 237 236
f 244 243 239
f 245 238 240
f 246 236 235
f 246 243 236
f 246 241 243
f 247 240 238
f 248 235 240
f 248 247 242
f 248 240 247
f 250 237 243
f 250 243 244
f 250 245 237
f 251 245 240
f 251 240 237
f 251 237 245
f 253 246 235
f 253 235 248
f 253 241 246
f 254 249 242
f 256 238 245
f 256 245 250
f 257 247 238
f 258 252 247
f 259 244 239
f 259 239 252
f 259 252 258
f 260 242 247
f 262 254 239
f 262 239 243
f 262 249 254
f 263 255 243
f 263 243 241
f 264 242 249
f 264 249 262
f 264 262 243
f 264 243 255
f 264 255 261
f 264 261 248
f 264 248 242
f 265 256 250
f 265 238 256
f 266 257 238
f 266 265 250
f 266 238 265
f 267 250 244
f 268 259 258
f 268 244 259
f 268 267 244
f 268 257 267
f 269 258 247
f 269 247 257
f 269 268 258
f 269 257 268
f 270 260 247
f 271 254 242
f 271 242 260
f 271 239 254
f 272 253 248
f 272 248 261
f 273 261 255
f 273 255 263
f 274 266 250
f 274 250 267
f 275 267 257
f 275 257 266
f 275 274 267
f 275 266 274
f 276 260 270
f 276 271 260
f 276 252 239
f 276 239 271
f 276 270 247
f 276 247 252
f 277 272 261
f 277 241 253
f 277 253 272
f 277 263 241
f 278 277 261
f 278 261 273
f 278 273 263
f 278 263 277
